<?xml version="1.0" standalone="no"?>
 <!DOCTYPE svg PUBLIC "-//W3C//DTD SVG 1.1//EN" 
 "http://www.w3.org/Graphics/SVG/1.1/DTD/svg11.dtd"> 
<svg xmlns="http://www.w3.org/2000/svg" version="1.1" 
    width="29.7002cm" height="21.0007cm" viewBox="0 0 116930 82680 ">
<title>SVG Picture created as CNC REVERSA-B_Cu.svg date 2019/11/12 17:45:45 </title>
  <desc>Picture generated by PCBNEW </desc>
<g style="fill:#000000; fill-opacity:1;stroke:#000000; stroke-opacity:1;
stroke-linecap:round; stroke-linejoin:round; "
 transform="translate(0 0) scale(1 1)">
</g>
<g style="fill:#000000; fill-opacity:0.0; 
stroke:#000000; stroke-width:-0.000393701; stroke-opacity:1; 
stroke-linecap:round; stroke-linejoin:round;">
</g>
<g style="fill:#000000; fill-opacity:0.0; 
stroke:#000000; stroke-width:118.11; stroke-opacity:1; 
stroke-linecap:round; stroke-linejoin:round;">
<path d="M60179 20763
L60179 20172
L60404 20172
L60461 20200
L60489 20228
L60517 20285
L60517 20369
L60489 20425
L60461 20453
L60404 20482
L60179 20482
" />
<path d="M61051 20763
L60770 20763
L60770 20172
" />
<path d="M61220 20594
L61501 20594
" />
<path d="M61164 20763
L61361 20172
L61557 20763
" />
<path d="M62092 20706
L62064 20735
L61979 20763
L61923 20763
L61839 20735
L61782 20678
L61754 20622
L61726 20510
L61726 20425
L61754 20313
L61782 20257
L61839 20200
L61923 20172
L61979 20172
L62064 20200
L62092 20228
" />
<path d="M62317 20594
L62598 20594
" />
<path d="M62260 20763
L62457 20172
L62654 20763
" />
<path d="M63638 20706
L63610 20735
L63526 20763
L63470 20763
L63385 20735
L63329 20678
L63301 20622
L63273 20510
L63273 20425
L63301 20313
L63329 20257
L63385 20200
L63470 20172
L63526 20172
L63610 20200
L63638 20228
" />
<path d="M63892 20763
L63892 20172
L64229 20763
L64229 20172
" />
<path d="M64848 20706
L64820 20735
L64735 20763
L64679 20763
L64595 20735
L64538 20678
L64510 20622
L64482 20510
L64482 20425
L64510 20313
L64538 20257
L64595 20200
L64679 20172
L64735 20172
L64820 20200
L64848 20228
" />
<path d="M56299 21457
L56496 21457
" />
<path d="M56580 21767
L56299 21767
L56299 21176
L56580 21176
" />
<path d="M56805 21739
L56889 21767
L57030 21767
L57086 21739
L57114 21710
L57142 21654
L57142 21598
L57114 21542
L57086 21514
L57030 21485
L56917 21457
L56861 21429
L56833 21401
L56805 21345
L56805 21289
L56833 21232
L56861 21204
L56917 21176
L57058 21176
L57142 21204
" />
<path d="M57733 21710
L57705 21739
L57620 21767
L57564 21767
L57480 21739
L57424 21682
L57395 21626
L57367 21514
L57367 21429
L57395 21317
L57424 21260
L57480 21204
L57564 21176
L57620 21176
L57705 21204
L57733 21232
" />
<path d="M58098 21176
L58211 21176
L58267 21204
L58323 21260
L58352 21373
L58352 21570
L58323 21682
L58267 21739
L58211 21767
L58098 21767
L58042 21739
L57986 21682
L57958 21570
L57958 21373
L57986 21260
L58042 21204
L58098 21176
" />
<path d="M58886 21767
L58605 21767
L58605 21176
" />
<path d="M59055 21598
L59336 21598
" />
<path d="M58998 21767
L59195 21176
L59392 21767
" />
<path d="M60011 21739
L60095 21767
L60236 21767
L60292 21739
L60320 21710
L60348 21654
L60348 21598
L60320 21542
L60292 21514
L60236 21485
L60123 21457
L60067 21429
L60039 21401
L60011 21345
L60011 21289
L60039 21232
L60067 21204
L60123 21176
L60264 21176
L60348 21204
" />
<path d="M60601 21457
L60798 21457
" />
<path d="M60883 21767
L60601 21767
L60601 21176
L60883 21176
" />
<path d="M61136 21767
L61136 21176
L61473 21767
L61473 21176
" />
<path d="M61726 21598
L62007 21598
" />
<path d="M61670 21767
L61867 21176
L62064 21767
" />
<path d="M62260 21767
L62260 21176
" />
<path d="M62964 21176
L62964 21289
" />
<path d="M63188 21176
L63188 21289
" />
<path d="M63723 21767
L63442 21767
L63442 21176
" />
<path d="M63920 21176
L63920 21654
L63948 21710
L63976 21739
L64032 21767
L64145 21767
L64201 21739
L64229 21710
L64257 21654
L64257 21176
" />
<path d="M64538 21767
L64538 21176
" />
<path d="M64763 21176
L65157 21176
L64763 21767
L65157 21767
" />
<path d="M65748 21176
L65944 21767
L66141 21176
" />
<path d="M66310 21598
L66591 21598
" />
<path d="M66254 21767
L66451 21176
L66647 21767
" />
<path d="M67182 21767
L66985 21485
" />
<path d="M66844 21767
L66844 21176
L67069 21176
L67125 21204
L67154 21232
L67182 21289
L67182 21373
L67154 21429
L67125 21457
L67069 21485
L66844 21485
" />
<path d="M67744 21204
L67688 21176
L67604 21176
L67519 21204
L67463 21260
L67435 21317
L67407 21429
L67407 21514
L67435 21626
L67463 21682
L67519 21739
L67604 21767
L67660 21767
L67744 21739
L67772 21710
L67772 21514
L67660 21514
" />
<path d="M67997 21598
L68278 21598
" />
<path d="M67941 21767
L68138 21176
L68335 21767
" />
<path d="M68503 21176
L68503 21289
" />
<path d="M68728 21176
L68728 21289
" />
<path d="M57114 22208
L57058 22180
L56974 22180
L56889 22208
L56833 22264
L56805 22321
L56777 22433
L56777 22517
L56805 22630
L56833 22686
L56889 22742
L56974 22771
L57030 22771
L57114 22742
L57142 22714
L57142 22517
L57030 22517
" />
<path d="M57367 22602
L57649 22602
" />
<path d="M57311 22771
L57508 22180
L57705 22771
" />
<path d="M58098 22461
L58183 22489
L58211 22517
L58239 22574
L58239 22658
L58211 22714
L58183 22742
L58127 22771
L57902 22771
L57902 22180
L58098 22180
L58155 22208
L58183 22236
L58211 22293
L58211 22349
L58183 22405
L58155 22433
L58098 22461
L57902 22461
" />
<path d="M58830 22771
L58633 22489
" />
<path d="M58492 22771
L58492 22180
L58717 22180
L58773 22208
L58802 22236
L58830 22293
L58830 22377
L58802 22433
L58773 22461
L58717 22489
L58492 22489
" />
<path d="M59083 22771
L59083 22180
" />
<path d="M59364 22461
L59561 22461
" />
<path d="M59645 22771
L59364 22771
L59364 22180
L59645 22180
" />
<path d="M60179 22771
L59898 22771
L59898 22180
" />
<path d="M60826 22771
L60826 22180
L61023 22602
L61220 22180
L61220 22771
" />
<path d="M61473 22602
L61754 22602
" />
<path d="M61417 22771
L61614 22180
L61811 22771
" />
<path d="M61951 22180
L62345 22771
" />
<path d="M62345 22180
L61951 22771
" />
<path d="M62570 22771
L62570 22180
" />
<path d="M62851 22771
L62851 22180
L63048 22602
L63245 22180
L63245 22771
" />
<path d="M63638 22180
L63751 22180
L63807 22208
L63863 22264
L63892 22377
L63892 22574
L63863 22686
L63807 22742
L63751 22771
L63638 22771
L63582 22742
L63526 22686
L63498 22574
L63498 22377
L63526 22264
L63582 22208
L63638 22180
" />
<path d="M64595 22771
L64595 22180
L64735 22180
L64820 22208
L64876 22264
L64904 22321
L64932 22433
L64932 22517
L64904 22630
L64876 22686
L64820 22742
L64735 22771
L64595 22771
" />
<path d="M65157 22602
L65438 22602
" />
<path d="M65101 22771
L65298 22180
L65494 22771
" />
<path d="M66113 22742
L66197 22771
L66338 22771
L66394 22742
L66422 22714
L66451 22658
L66451 22602
L66422 22546
L66394 22517
L66338 22489
L66226 22461
L66169 22433
L66141 22405
L66113 22349
L66113 22293
L66141 22236
L66169 22208
L66226 22180
L66366 22180
L66451 22208
" />
<path d="M66704 22771
L66704 22180
" />
<path d="M67266 22771
L66985 22771
L66985 22180
" />
<path d="M67379 22180
L67575 22771
L67772 22180
" />
<path d="M67941 22602
L68222 22602
" />
<path d="M67885 22771
L68082 22180
L68278 22771
" />
</g>
<g style="fill:#000000; fill-opacity:1.0; 
stroke:#000000; stroke-width:3.93701; stroke-opacity:1; 
stroke-linecap:round; stroke-linejoin:round;">
<path style="fill:#000000; fill-opacity:1.0; 
stroke:#000000; stroke-width:3.93701; stroke-opacity:1; 
stroke-linecap:round; stroke-linejoin:round;fill-rule:evenodd;"
d="M 48360,50813
48381,50813
48441,50815
48492,50819
48535,50827
48571,50838
48603,50854
48631,50875
48641,50884
48658,50904
48674,50933
48686,50964
48692,50994
48693,51005
48688,51036
48677,51070
48661,51102
48642,51127
48638,51130
48612,51152
48583,51169
48549,51181
48510,51190
48463,51195
48407,51197
48382,51198
48349,51198
48326,51197
48311,51195
48301,51193
48294,51189
48290,51186
48287,51182
48284,51177
48282,51169
48281,51158
48280,51141
48279,51117
48279,51086
48278,51045
48278,51005
48278,50952
48278,50910
48279,50890
48355,50890
48355,51121
48404,51121
48434,51120
48464,51118
48490,51115
48491,51115
48532,51104
48564,51089
48589,51067
48604,51043
48614,51016
48613,50991
48602,50964
48580,50936
48550,50916
48511,50902
48485,50897
48455,50893
48424,50891
48397,50890
48395,50890
48355,50890
48279,50890
48279,50877
48281,50853
48286,50835
48293,50824
48303,50817
48317,50814
48336,50813
48360,50813
Z" /> 
<path style="fill:#000000; fill-opacity:1.0; 
stroke:#000000; stroke-width:3.93701; stroke-opacity:1; 
stroke-linecap:round; stroke-linejoin:round;fill-rule:evenodd;"
d="M 49098,50813
49135,50813
49162,50814
49182,50815
49196,50816
49205,50818
49212,50820
49216,50824
49218,50825
49229,50841
49230,50860
49224,50877
49220,50880
49215,50883
49207,50886
49194,50888
49175,50889
49149,50890
49113,50891
49080,50891
48950,50893
48947,50961
49035,50961
49073,50961
49101,50963
49120,50966
49133,50971
49139,50979
49142,50990
49142,51001
49141,51014
49136,51024
49126,51030
49110,51035
49085,51037
49050,51038
49032,51038
48947,51038
48947,51121
49077,51121
49120,51121
49152,51121
49176,51122
49193,51123
49204,51124
49212,51127
49217,51130
49219,51133
49228,51147
49231,51159
49227,51175
49219,51186
49215,51189
49210,51192
49202,51194
49190,51196
49172,51197
49148,51197
49115,51198
49073,51198
49051,51198
49003,51198
48967,51197
48939,51197
48918,51196
48904,51195
48895,51193
48888,51191
48884,51187
48882,51186
48879,51182
48876,51177
48874,51169
48872,51157
48871,51141
48871,51117
48870,51086
48870,51045
48870,51006
48870,50958
48870,50919
48871,50890
48871,50868
48872,50853
48874,50842
48876,50835
48879,50831
48883,50827
48884,50826
48888,50822
48894,50819
48901,50817
48912,50815
48929,50814
48951,50813
48982,50813
49023,50813
49051,50813
49098,50813
Z" /> 
<path style="fill:#000000; fill-opacity:1.0; 
stroke:#000000; stroke-width:3.93701; stroke-opacity:1; 
stroke-linecap:round; stroke-linejoin:round;fill-rule:evenodd;"
d="M 49633,50814
49673,50816
49709,50821
49741,50826
49765,50833
49781,50841
49783,50844
49791,50862
49789,50880
49776,50896
49776,50897
49768,50902
49760,50904
49749,50904
49732,50903
49707,50899
49705,50898
49666,50894
49625,50891
49584,50891
49546,50893
49513,50898
49488,50904
49487,50905
49469,50914
49463,50924
49468,50934
49483,50944
49509,50952
49545,50960
49568,50964
49618,50971
49657,50977
49688,50984
49712,50991
49731,50999
49747,51008
49760,51020
49771,51032
49785,51048
49791,51062
49793,51079
49793,51085
49792,51106
49786,51121
49775,51135
49754,51156
49730,51172
49702,51184
49667,51191
49625,51196
49574,51197
49565,51197
49531,51196
49497,51194
49467,51192
49445,51189
49443,51189
49421,51184
49402,51177
49391,51171
49381,51155
49380,51136
49389,51120
49391,51118
49399,51112
49409,51110
49424,51110
49443,51112
49463,51114
49493,51116
49527,51117
49562,51118
49571,51118
49607,51118
49633,51117
49652,51115
49666,51113
49677,51109
49683,51106
49698,51097
49708,51089
49709,51087
49706,51078
49692,51069
49669,51061
49636,51054
49626,51052
49576,51044
49536,51037
49504,51032
49480,51026
49461,51021
49446,51014
49433,51007
49422,50998
49409,50987
49405,50983
49390,50969
49383,50958
49380,50945
49379,50928
49384,50896
49401,50869
49427,50847
49465,50829
49491,50821
49520,50816
49555,50814
49594,50813
49633,50814
Z" /> 
<path style="fill:#000000; fill-opacity:1.0; 
stroke:#000000; stroke-width:3.93701; stroke-opacity:1; 
stroke-linecap:round; stroke-linejoin:round;fill-rule:evenodd;"
d="M 50036,50825
50039,50829
50042,50834
50044,50842
50046,50853
50047,50870
50047,50893
50048,50925
50048,50966
50048,51005
50048,51055
50047,51093
50047,51123
50046,51145
50045,51160
50044,51171
50042,51178
50039,51183
50036,51186
50019,51196
50000,51195
49984,51184
49980,51180
49977,51174
49975,51167
49973,51157
49972,51141
49971,51119
49971,51089
49971,51050
49971,51006
49971,50842
49985,50828
50003,50815
50021,50815
50036,50825
Z" /> 
<path style="fill:#000000; fill-opacity:1.0; 
stroke:#000000; stroke-width:3.93701; stroke-opacity:1; 
stroke-linecap:round; stroke-linejoin:round;fill-rule:evenodd;"
d="M 50546,50816
50582,50822
50610,50831
50628,50844
50633,50851
50638,50867
50634,50882
50624,50896
50607,50902
50583,50902
50565,50898
50524,50892
50482,50891
50435,50896
50422,50899
50379,50911
50345,50929
50321,50953
50307,50983
50304,50998
50306,51028
50318,51056
50339,51079
50369,51097
50405,51111
50448,51118
50495,51120
50546,51115
50549,51114
50569,51110
50580,51107
50585,51101
50586,51092
50586,51088
50586,51067
50550,51067
50519,51065
50497,51058
50484,51046
50480,51028
50480,51026
50482,51010
50492,50999
50509,50991
50535,50987
50560,50986
50597,50985
50624,50986
50643,50991
50654,51001
50660,51018
50663,51043
50663,51076
50662,51112
50660,51137
50656,51150
50656,51151
50635,51168
50605,51181
50568,51190
50525,51195
50478,51197
50429,51193
50400,51189
50355,51176
50313,51155
50277,51128
50272,51123
50255,51100
50239,51071
50227,51042
50220,51015
50219,51005
50223,50983
50232,50956
50245,50928
50261,50902
50274,50885
50306,50859
50348,50839
50397,50824
50452,50816
50503,50814
50546,50816
Z" /> 
<path style="fill:#000000; fill-opacity:1.0; 
stroke:#000000; stroke-width:3.93701; stroke-opacity:1; 
stroke-linecap:round; stroke-linejoin:round;fill-rule:evenodd;"
d="M 50887,50815
50899,50823
50915,50834
50936,50851
50963,50874
50995,50903
51035,50939
51080,50980
51175,51066
51178,50951
51179,50911
51180,50882
51181,50861
51183,50846
51185,50837
51188,50831
51193,50826
51195,50824
51213,50814
51230,50816
51244,50824
51258,50836
51260,51001
51260,51049
51260,51087
51260,51117
51260,51138
51259,51154
51257,51164
51255,51172
51252,51177
51249,51182
51242,51190
51235,51195
51227,51198
51217,51196
51204,51189
51187,51178
51166,51161
51138,51137
51104,51106
51065,51071
50926,50945
50923,51060
50922,51100
50921,51129
50920,51150
50918,51165
50916,51174
50913,51180
50909,51185
50907,51186
50887,51196
50869,51195
50853,51182
50849,51177
50846,51171
50844,51163
50843,51151
50842,51133
50841,51109
50841,51077
50841,51036
50841,51005
50841,50957
50841,50920
50841,50891
50842,50870
50843,50855
50845,50845
50847,50837
50851,50832
50853,50829
50859,50821
50864,50816
50870,50812
50878,50812
50887,50815
Z" /> 
<path style="fill:#000000; fill-opacity:1.0; 
stroke:#000000; stroke-width:3.93701; stroke-opacity:1; 
stroke-linecap:round; stroke-linejoin:round;fill-rule:evenodd;"
d="M 51689,50813
51729,50814
51760,50815
51782,50817
51798,50820
51808,50825
51814,50831
51816,50839
51817,50850
51817,50851
51816,50863
51814,50872
51808,50879
51798,50884
51781,50887
51757,50889
51725,50890
51682,50891
51669,50891
51542,50893
51540,50927
51538,50961
51626,50961
51661,50961
51685,50962
51702,50963
51713,50965
51720,50968
51725,50973
51725,50973
51734,50990
51734,51009
51724,51026
51722,51027
51716,51031
51706,51034
51692,51036
51672,51037
51643,51038
51624,51038
51539,51038
51539,51121
51668,51121
51711,51121
51743,51121
51767,51122
51783,51123
51794,51125
51801,51127
51806,51130
51807,51132
51816,51148
51816,51167
51809,51183
51804,51188
51798,51191
51789,51194
51776,51195
51756,51196
51730,51197
51694,51198
51649,51198
51638,51198
51592,51198
51556,51197
51529,51197
51509,51196
51496,51195
51487,51193
51481,51191
51476,51187
51474,51185
51470,51180
51468,51175
51466,51167
51464,51156
51463,51139
51462,51115
51462,51084
51462,51043
51462,51008
51462,50960
51462,50922
51463,50893
51463,50871
51464,50856
51466,50845
51469,50838
51472,50832
51474,50829
51486,50813
51639,50813
51689,50813
Z" /> 
<path style="fill:#000000; fill-opacity:1.0; 
stroke:#000000; stroke-width:3.93701; stroke-opacity:1; 
stroke-linecap:round; stroke-linejoin:round;fill-rule:evenodd;"
d="M 52102,50813
52170,50815
52227,50822
52276,50834
52316,50852
52349,50875
52375,50905
52396,50941
52397,50942
52409,50975
52414,51004
52410,51033
52399,51066
52396,51071
52381,51100
52364,51123
52342,51142
52311,51162
52309,51163
52283,51175
52253,51185
52218,51191
52176,51195
52124,51197
52106,51197
52019,51198
52007,51182
52003,51177
52000,51171
51998,51163
51997,51151
51996,51133
51995,51121
52077,51121
52127,51121
52155,51120
52185,51118
52209,51115
52211,51114
52254,51103
52287,51085
52312,51061
52329,51030
52332,51022
52335,51009
52334,50996
52328,50979
52324,50970
52312,50948
52297,50933
52281,50922
52248,50908
52207,50897
52158,50892
52123,50890
52077,50890
52077,51121
51995,51121
51995,51110
51995,51078
51994,51037
51994,51004
51994,50842
52009,50828
52015,50822
52022,50818
52032,50815
52047,50814
52069,50813
52100,50813
52102,50813
Z" /> 
<path style="fill:#000000; fill-opacity:1.0; 
stroke:#000000; stroke-width:3.93701; stroke-opacity:1; 
stroke-linecap:round; stroke-linejoin:round;fill-rule:evenodd;"
d="M 53531,50814
53541,50818
53542,50818
53556,50829
53564,50840
53565,50845
53565,50851
53563,50861
53558,50875
53551,50894
53540,50920
53525,50953
53505,50995
53495,51019
53476,51060
53458,51098
53442,51131
53428,51158
53418,51178
53411,51189
53410,51190
53394,51197
53375,51196
53361,51188
53360,51187
53354,51178
53344,51161
53332,51138
53317,51110
53312,51100
53274,51023
53232,51107
53217,51136
53203,51161
53192,51180
53184,51191
53181,51194
53159,51197
53141,51190
53136,51183
53126,51166
53114,51142
53099,51112
53083,51078
53066,51041
53049,51003
53032,50966
53016,50931
53003,50900
52993,50875
52986,50856
52984,50847
52984,50847
52990,50835
53001,50823
53002,50823
53016,50815
53029,50815
53034,50816
53040,50820
53047,50826
53054,50837
53063,50854
53076,50878
53091,50910
53105,50940
53121,50975
53136,51006
53148,51032
53157,51052
53161,51063
53162,51065
53165,51062
53173,51050
53183,51031
53196,51007
53201,50996
53219,50962
53232,50938
53242,50921
53251,50910
53259,50904
53268,50902
53273,50902
53283,50903
53291,50906
53300,50914
53309,50927
53321,50948
53336,50977
53345,50993
53358,51020
53370,51041
53379,51057
53384,51064
53385,51064
53388,51059
53396,51044
53407,51021
53421,50993
53436,50959
53444,50943
53464,50901
53480,50868
53493,50844
53504,50828
53513,50818
53522,50814
53531,50814
Z" /> 
<path style="fill:#000000; fill-opacity:1.0; 
stroke:#000000; stroke-width:3.93701; stroke-opacity:1; 
stroke-linecap:round; stroke-linejoin:round;fill-rule:evenodd;"
d="M 53764,50817
53776,50824
53790,50836
53790,51004
53790,51054
53790,51092
53790,51122
53789,51144
53788,51160
53786,51171
53784,51178
53781,51183
53779,51185
53763,51196
53744,51196
53727,51186
53713,51175
53713,50836
53727,50824
53741,50816
53752,50813
53764,50817
Z" /> 
<path style="fill:#000000; fill-opacity:1.0; 
stroke:#000000; stroke-width:3.93701; stroke-opacity:1; 
stroke-linecap:round; stroke-linejoin:round;fill-rule:evenodd;"
d="M 54170,50813
54211,50813
54243,50814
54267,50814
54285,50815
54297,50817
54305,50819
54310,50821
54313,50823
54326,50840
54328,50858
54320,50874
54314,50881
54308,50885
54300,50888
54287,50889
54266,50890
54237,50890
54231,50890
54154,50890
54154,51032
54154,51077
54154,51111
54153,51137
54152,51155
54151,51168
54149,51176
54146,51182
54142,51186
54125,51196
54107,51195
54091,51184
54090,51182
54086,51177
54083,51170
54080,51161
54079,51148
54078,51129
54078,51103
54077,51068
54077,51028
54077,50890
54004,50890
53973,50890
53951,50889
53937,50887
53928,50884
53922,50880
53921,50879
53913,50862
53914,50842
53923,50825
53927,50822
53932,50819
53940,50817
53951,50815
53967,50814
53989,50814
54019,50813
54058,50813
54108,50813
54118,50813
54170,50813
Z" /> 
<path style="fill:#000000; fill-opacity:1.0; 
stroke:#000000; stroke-width:3.93701; stroke-opacity:1; 
stroke-linecap:round; stroke-linejoin:round;fill-rule:evenodd;"
d="M 54833,50816
54850,50828
54864,50842
54864,51004
54864,51052
54864,51090
54864,51119
54863,51140
54862,51155
54860,51166
54858,51173
54854,51179
54852,51182
54836,51195
54817,51196
54801,51188
54795,51184
54791,51178
54789,51168
54788,51152
54787,51127
54787,51109
54787,51038
54527,51038
54527,51102
54527,51132
54526,51152
54523,51165
54519,51175
54515,51182
54499,51195
54480,51196
54463,51187
54458,51183
54455,51176
54452,51166
54451,51151
54450,51128
54450,51096
54450,51088
54450,51027
54450,50977
54450,50936
54450,50904
54450,50879
54451,50861
54452,50848
54454,50839
54456,50832
54459,50828
54462,50825
54479,50815
54496,50816
54512,50828
54519,50835
54523,50843
54526,50855
54527,50873
54527,50900
54527,50961
54787,50961
54787,50899
54788,50870
54789,50851
54791,50838
54795,50830
54799,50825
54816,50815
54833,50816
Z" /> 
<path style="fill:#000000; fill-opacity:1.0; 
stroke:#000000; stroke-width:3.93701; stroke-opacity:1; 
stroke-linecap:round; stroke-linejoin:round;fill-rule:evenodd;"
d="M 50081,47458
50135,47476
50185,47506
50229,47546
50267,47596
50284,47628
50299,47673
50306,47724
50305,47777
50296,47825
50272,47884
50238,47935
50194,47977
50144,48009
50087,48031
50028,48040
49966,48037
49935,48031
49876,48008
49823,47973
49778,47926
49743,47870
49740,47864
49729,47841
49723,47821
49719,47801
49718,47775
49717,47746
49718,47712
49720,47687
49724,47667
49731,47647
49740,47627
49774,47571
49815,47525
49863,47490
49915,47466
49969,47453
50026,47450
50081,47458
Z" /> 
<path style="fill:#000000; fill-opacity:1.0; 
stroke:#000000; stroke-width:3.93701; stroke-opacity:1; 
stroke-linecap:round; stroke-linejoin:round;fill-rule:evenodd;"
d="M 55059,47937
55120,47937
55141,47937
55425,47939
55428,49028
55429,49176
55429,49310
55429,49431
55430,49540
55430,49638
55431,49724
55431,49801
55432,49868
55433,49926
55434,49977
55435,50020
55436,50056
55438,50087
55440,50112
55442,50132
55444,50149
55447,50162
55450,50173
55454,50183
55458,50191
55463,50199
55467,50206
55473,50215
55474,50217
55493,50250
54946,50246
54942,50186
54940,50157
54938,50140
54936,50134
54932,50135
54928,50139
54913,50153
54889,50171
54858,50190
54825,50210
54793,50227
54768,50238
54710,50256
54644,50269
54574,50276
54505,50277
54442,50271
54441,50271
54355,50249
54275,50215
54201,50169
54134,50111
54075,50043
54025,49965
53983,49878
53961,49814
53946,49760
53935,49708
53928,49654
53923,49596
53922,49530
53923,49476
54450,49476
54452,49566
54460,49644
54473,49710
54493,49765
54518,49809
54550,49843
54587,49867
54606,49876
54622,49882
54641,49884
54666,49884
54692,49883
54745,49879
54786,49870
54800,49865
54829,49852
54861,49835
54875,49826
54910,49803
54910,49060
54871,49037
54816,49010
54760,48994
54705,48990
54653,48995
54606,49012
54565,49038
54552,49051
54521,49093
54496,49145
54476,49205
54462,49277
54453,49360
54450,49455
54450,49476
53923,49476
53923,49453
53929,49336
53941,49230
53959,49133
53985,49046
54017,48965
54029,48941
54075,48863
54131,48794
54195,48734
54267,48685
54344,48649
54390,48634
54436,48625
54490,48620
54550,48618
54609,48620
54664,48625
54708,48634
54760,48651
54811,48673
54856,48698
54879,48714
54896,48727
54907,48734
54910,48735
54911,48728
54911,48709
54912,48677
54913,48636
54913,48586
54913,48528
54914,48465
54914,48401
54914,48318
54914,48248
54913,48190
54912,48143
54911,48104
54909,48073
54906,48048
54902,48028
54897,48012
54892,47998
54885,47985
54876,47972
54875,47970
54864,47953
54858,47941
54857,47939
54864,47938
54883,47937
54914,47937
54955,47937
55004,47936
55059,47937
Z" /> 
<path style="fill:#000000; fill-opacity:1.0; 
stroke:#000000; stroke-width:3.93701; stroke-opacity:1; 
stroke-linecap:round; stroke-linejoin:round;fill-rule:evenodd;"
d="M 53147,48617
53183,48619
53284,48633
53374,48654
53452,48684
53520,48723
53578,48770
53625,48826
53664,48892
53692,48964
53699,48987
53705,49008
53710,49029
53715,49051
53719,49075
53722,49102
53725,49133
53727,49170
53729,49213
53730,49264
53731,49324
53732,49394
53733,49475
53734,49569
53735,49642
53739,50146
53766,50194
53778,50218
53788,50236
53792,50246
53792,50246
53785,50247
53766,50248
53735,50248
53695,50249
53646,50249
53591,50249
53532,50249
53525,50250
53257,50250
53257,50189
53256,50161
53255,50140
53253,50129
53252,50128
53245,50132
53231,50144
53212,50160
53211,50160
53177,50186
53133,50212
53085,50235
53038,50254
53017,50260
52976,50268
52925,50273
52870,50275
52815,50275
52764,50271
52728,50265
52641,50239
52562,50202
52493,50155
52433,50098
52383,50032
52345,49956
52328,49910
52318,49866
52311,49812
52307,49754
52307,49746
52791,49746
52795,49789
52808,49824
52833,49857
52842,49867
52876,49893
52915,49910
52961,49918
53010,49919
53057,49915
53093,49907
53108,49901
53136,49885
53165,49863
53192,49838
53213,49814
53218,49806
53222,49793
53225,49774
53227,49745
53228,49705
53228,49667
53228,49623
53227,49592
53226,49570
53224,49556
53221,49548
53217,49545
53216,49544
53204,49542
53181,49540
53150,49539
53114,49539
53107,49539
53059,49540
53021,49542
52992,49546
52968,49552
52907,49575
52860,49603
52825,49637
52802,49677
52792,49723
52791,49746
52307,49746
52308,49698
52313,49647
52317,49626
52341,49550
52377,49480
52426,49417
52485,49361
52555,49313
52635,49274
52703,49250
52748,49238
52792,49228
52836,49221
52884,49216
52938,49213
53002,49211
53059,49211
53230,49210
53226,49159
53217,49103
53197,49056
53168,49017
53130,48988
53096,48974
53048,48966
52991,48964
52927,48970
52860,48982
52791,49001
52724,49025
52676,49047
52652,49059
52634,49067
52625,49070
52625,49070
52622,49063
52614,49044
52602,49016
52587,48980
52569,48938
52552,48895
52480,48723
52531,48714
52553,48710
52586,48703
52627,48694
52674,48683
52723,48672
52742,48667
52827,48647
52901,48632
52967,48622
53029,48617
53088,48615
53147,48617
Z" /> 
<path style="fill:#000000; fill-opacity:1.0; 
stroke:#000000; stroke-width:3.93701; stroke-opacity:1; 
stroke-linecap:round; stroke-linejoin:round;fill-rule:evenodd;"
d="M 51728,48043
51805,48051
51880,48066
51955,48089
52034,48119
52120,48159
52135,48167
52171,48184
52204,48200
52232,48212
52252,48220
52255,48221
52283,48230
52155,48416
52124,48462
52095,48504
52070,48540
52049,48570
52035,48591
52027,48603
52025,48605
52020,48601
52007,48589
51988,48572
51977,48562
51919,48515
51853,48480
51796,48460
51762,48454
51719,48450
51673,48449
51628,48450
51590,48454
51574,48457
51505,48481
51443,48517
51388,48566
51339,48627
51298,48700
51264,48786
51236,48884
51220,48967
51216,49004
51213,49052
51211,49107
51211,49166
51212,49226
51214,49282
51218,49333
51222,49373
51223,49379
51245,49480
51275,49569
51314,49646
51361,49713
51394,49750
51453,49799
51519,49835
51589,49859
51662,49869
51738,49866
51816,49850
51862,49834
51925,49801
51990,49755
52027,49724
52047,49706
52063,49693
52073,49686
52074,49686
52078,49693
52088,49710
52105,49736
52126,49771
52150,49811
52178,49857
52193,49882
52311,50075
52164,50147
52111,50174
52068,50194
52033,50210
52002,50223
51973,50233
51944,50242
51912,50250
51882,50257
51854,50263
51826,50267
51793,50270
51754,50272
51704,50274
51671,50275
51623,50275
51578,50275
51537,50274
51505,50273
51483,50271
51482,50271
51370,50246
51264,50209
51166,50160
51074,50098
50990,50024
50912,49937
50856,49860
50796,49759
50747,49653
50710,49540
50684,49419
50669,49291
50664,49160
50668,49034
50680,48917
50702,48808
50733,48705
50773,48606
50778,48596
50831,48500
50897,48409
50973,48324
51057,48248
51148,48182
51232,48133
51318,48095
51403,48068
51493,48050
51589,48041
51646,48040
51728,48043
Z" /> 
<path style="fill:#000000; fill-opacity:1.0; 
stroke:#000000; stroke-width:3.93701; stroke-opacity:1; 
stroke-linecap:round; stroke-linejoin:round;fill-rule:evenodd;"
d="M 48401,47685
48539,47685
48603,47685
49628,47685
49628,47746
49635,47819
49654,47887
49687,47950
49733,48007
49748,48023
49804,48067
49866,48099
49932,48119
50000,48128
50068,48124
50134,48109
50197,48081
50255,48042
50281,48019
50329,47961
50364,47897
50387,47828
50395,47755
50395,47748
50396,47685
50423,47685
50448,47689
50470,47697
50471,47697
50477,47700
50481,47702
50485,47704
50489,47707
50493,47711
50496,47716
50499,47724
50501,47735
50503,47750
50505,47769
50507,47792
50508,47821
50510,47856
50511,47897
50511,47945
50512,48001
50512,48066
50513,48139
50513,48222
50513,48315
50513,48418
50513,48533
50513,48659
50513,48798
50512,48951
50512,49116
50512,49136
50512,49303
50512,49456
50512,49596
50511,49724
50511,49839
50511,49943
50511,50037
50510,50120
50510,50194
50509,50259
50508,50315
50507,50364
50506,50405
50505,50440
50504,50469
50502,50493
50500,50511
50498,50526
50495,50536
50492,50544
50489,50549
50486,50553
50482,50555
50477,50556
50473,50558
50468,50560
50466,50560
50462,50561
50456,50563
50446,50564
50433,50565
50415,50566
50392,50566
50363,50567
50329,50568
50288,50568
50239,50569
50183,50569
50119,50570
50045,50570
49962,50570
49869,50570
49765,50571
49650,50571
49524,50571
49384,50571
49232,50571
49066,50571
49013,50571
48843,50571
48688,50571
48545,50571
48415,50571
48297,50570
48190,50570
48094,50570
48009,50570
47933,50570
47866,50569
47807,50569
47757,50568
47714,50568
47677,50567
47647,50566
47622,50566
47602,50565
47587,50564
47576,50563
47567,50562
47562,50561
47559,50559
47554,50557
47549,50555
47544,50554
47540,50552
47536,50548
47533,50543
47530,50535
47527,50525
47525,50511
47523,50493
47521,50470
47520,50441
47518,50407
47517,50367
47516,50319
47515,50264
47515,50242
47706,50242
48380,50242
48367,50223
48354,50203
48343,50183
48334,50164
48326,50142
48320,50118
48316,50089
48313,50055
48310,50013
48309,49963
48308,49903
48308,49832
48308,49748
48308,49717
48310,49385
48521,49671
48581,49753
48632,49824
48677,49885
48714,49938
48745,49982
48771,50021
48791,50053
48806,50081
48818,50104
48826,50125
48831,50143
48834,50160
48835,50178
48834,50195
48834,50198
48832,50242
49570,50242
49515,50187
49500,50172
49486,50157
49472,50142
49458,50126
49442,50107
49425,50086
49405,50061
49383,50032
49356,49997
49326,49956
49291,49909
49250,49853
49204,49789
49150,49716
49090,49633
49040,49564
48977,49478
48923,49403
48876,49338
48836,49283
48803,49236
48775,49196
48753,49165
48736,49139
48724,49120
48715,49105
48710,49095
48708,49089
48709,49085
48716,49077
48731,49058
48753,49030
48781,48994
48815,48952
48853,48904
48895,48852
48940,48797
48986,48740
49033,48682
49059,48650
49700,48650
49726,48698
49753,48746
49753,50146
49726,50194
49700,50242
50015,50242
50090,50242
50152,50242
50203,50242
50242,50242
50272,50241
50294,50240
50308,50239
50317,50237
50321,50235
50321,50233
50319,50230
50319,50230
50310,50217
50298,50195
50287,50174
50267,50132
50265,49391
50263,48650
49700,48650
49059,48650
49080,48623
49125,48566
49169,48512
49211,48461
49248,48415
49281,48374
49308,48340
49329,48314
49342,48300
49389,48243
49435,48193
49478,48149
49515,48115
49542,48094
49573,48071
48850,48071
48850,48113
48848,48145
48841,48173
48829,48201
48821,48216
48813,48232
48804,48248
48792,48266
48778,48287
48760,48312
48737,48342
48710,48378
48677,48421
48637,48472
48590,48531
48534,48601
48528,48609
48310,48885
48308,48580
48308,48488
48308,48411
48308,48347
48310,48297
48311,48260
48313,48236
48314,48232
48326,48184
48341,48141
48358,48107
48369,48092
48386,48071
48046,48071
47965,48071
47897,48071
47841,48072
47797,48072
47763,48073
47739,48074
47722,48076
47714,48077
47711,48079
47711,48080
47718,48091
47730,48108
47737,48117
47743,48125
47749,48133
47754,48141
47759,48149
47763,48159
47766,48171
47769,48185
47772,48204
47774,48226
47776,48254
47778,48288
47779,48329
47780,48377
47781,48434
47781,48500
47782,48575
47782,48661
47783,48758
47783,48868
47783,48990
47784,49102
47784,49228
47784,49347
47784,49460
47784,49566
47784,49664
47783,49752
47783,49832
47782,49901
47782,49959
47781,50005
47780,50038
47779,50058
47779,50060
47773,50109
47763,50148
47748,50182
47726,50215
47723,50219
47706,50242
47515,50242
47515,50200
47514,50127
47514,50045
47514,49953
47514,49851
47514,49737
47514,49611
47514,49473
47514,49322
47514,49158
47514,49125
47514,48958
47514,48806
47514,48666
47514,48539
47514,48424
47514,48320
47514,48227
47515,48145
47515,48071
47515,48007
47516,47951
47516,47903
47517,47863
47518,47829
47518,47801
47519,47778
47520,47761
47521,47748
47522,47738
47523,47732
47525,47728
47525,47728
47527,47722
47530,47717
47532,47712
47535,47708
47540,47704
47548,47701
47558,47698
47572,47695
47590,47693
47614,47691
47643,47690
47678,47689
47721,47688
47772,47687
47831,47686
47899,47686
47977,47685
48065,47685
48165,47685
48277,47685
48401,47685
Z" /> 
<g >
</g>
<g >
</g>
<g style="fill:#000000; fill-opacity:1.0; 
stroke:#000000; stroke-width:3.93701; stroke-opacity:1; 
stroke-linecap:round; stroke-linejoin:round;">
</g>
<g style="fill:#000000; fill-opacity:1.0; 
stroke:#000000; stroke-width:0; stroke-opacity:1; 
stroke-linecap:round; stroke-linejoin:round;">
<path style="fill:#000000; fill-opacity:1.0; 
stroke:#000000; stroke-width:0; stroke-opacity:1; 
stroke-linecap:round; stroke-linejoin:round;fill-rule:evenodd;"
d="M 44590,32090
43409,32090
43409,30909
44590,30909
44590,32090
Z" /> 
<circle cx="44000" cy="29531.5" r="590.551" /> 
</g>
<g style="fill:#000000; fill-opacity:1.0; 
stroke:#000000; stroke-width:39.3701; stroke-opacity:1; 
stroke-linecap:round; stroke-linejoin:round;">
</g>
<g style="fill:#000000; fill-opacity:1.0; 
stroke:#000000; stroke-width:0; stroke-opacity:1; 
stroke-linecap:round; stroke-linejoin:round;">
<circle cx="44000" cy="27563" r="590.551" /> 
</g>
<g style="fill:#000000; fill-opacity:1.0; 
stroke:#000000; stroke-width:39.3701; stroke-opacity:1; 
stroke-linecap:round; stroke-linejoin:round;">
</g>
<g style="fill:#000000; fill-opacity:1.0; 
stroke:#000000; stroke-width:0; stroke-opacity:1; 
stroke-linecap:round; stroke-linejoin:round;">
<circle cx="44000" cy="25594.5" r="590.551" /> 
</g>
<g style="fill:#000000; fill-opacity:1.0; 
stroke:#000000; stroke-width:39.3701; stroke-opacity:1; 
stroke-linecap:round; stroke-linejoin:round;">
</g>
<g style="fill:#000000; fill-opacity:1.0; 
stroke:#000000; stroke-width:0; stroke-opacity:1; 
stroke-linecap:round; stroke-linejoin:round;">
<circle cx="44000" cy="23626" r="590.551" /> 
</g>
<g style="fill:#000000; fill-opacity:1.0; 
stroke:#000000; stroke-width:39.3701; stroke-opacity:1; 
stroke-linecap:round; stroke-linejoin:round;">
</g>
<g style="fill:#000000; fill-opacity:1.0; 
stroke:#000000; stroke-width:0; stroke-opacity:1; 
stroke-linecap:round; stroke-linejoin:round;">
<circle cx="44000" cy="21657.5" r="590.551" /> 
</g>
<g style="fill:#000000; fill-opacity:1.0; 
stroke:#000000; stroke-width:39.3701; stroke-opacity:1; 
stroke-linecap:round; stroke-linejoin:round;">
</g>
<g >
</g>
<g style="fill:#000000; fill-opacity:1.0; 
stroke:#000000; stroke-width:39.3701; stroke-opacity:1; 
stroke-linecap:round; stroke-linejoin:round;">
</g>
<g style="fill:#000000; fill-opacity:1.0; 
stroke:#000000; stroke-width:0; stroke-opacity:1; 
stroke-linecap:round; stroke-linejoin:round;">
<path style="fill:#000000; fill-opacity:1.0; 
stroke:#000000; stroke-width:0; stroke-opacity:1; 
stroke-linecap:round; stroke-linejoin:round;fill-rule:evenodd;"
d="M 44590,57590
43409,57590
43409,56409
44590,56409
44590,57590
Z" /> 
<circle cx="44000" cy="55031.5" r="590.551" /> 
</g>
<g style="fill:#000000; fill-opacity:1.0; 
stroke:#000000; stroke-width:39.3701; stroke-opacity:1; 
stroke-linecap:round; stroke-linejoin:round;">
</g>
<g style="fill:#000000; fill-opacity:1.0; 
stroke:#000000; stroke-width:0; stroke-opacity:1; 
stroke-linecap:round; stroke-linejoin:round;">
<circle cx="44000" cy="53063" r="590.551" /> 
</g>
<g style="fill:#000000; fill-opacity:1.0; 
stroke:#000000; stroke-width:39.3701; stroke-opacity:1; 
stroke-linecap:round; stroke-linejoin:round;">
</g>
<g style="fill:#000000; fill-opacity:1.0; 
stroke:#000000; stroke-width:0; stroke-opacity:1; 
stroke-linecap:round; stroke-linejoin:round;">
<circle cx="44000" cy="51094.5" r="590.551" /> 
</g>
<g style="fill:#000000; fill-opacity:1.0; 
stroke:#000000; stroke-width:39.3701; stroke-opacity:1; 
stroke-linecap:round; stroke-linejoin:round;">
</g>
<g style="fill:#000000; fill-opacity:1.0; 
stroke:#000000; stroke-width:0; stroke-opacity:1; 
stroke-linecap:round; stroke-linejoin:round;">
<circle cx="44000" cy="49126" r="590.551" /> 
</g>
<g style="fill:#000000; fill-opacity:1.0; 
stroke:#000000; stroke-width:39.3701; stroke-opacity:1; 
stroke-linecap:round; stroke-linejoin:round;">
</g>
<g style="fill:#000000; fill-opacity:1.0; 
stroke:#000000; stroke-width:0; stroke-opacity:1; 
stroke-linecap:round; stroke-linejoin:round;">
<circle cx="44000" cy="47157.5" r="590.551" /> 
</g>
<g style="fill:#000000; fill-opacity:1.0; 
stroke:#000000; stroke-width:39.3701; stroke-opacity:1; 
stroke-linecap:round; stroke-linejoin:round;">
</g>
<g >
</g>
<g style="fill:#000000; fill-opacity:1.0; 
stroke:#000000; stroke-width:39.3701; stroke-opacity:1; 
stroke-linecap:round; stroke-linejoin:round;">
</g>
<g style="fill:#000000; fill-opacity:1.0; 
stroke:#000000; stroke-width:0; stroke-opacity:1; 
stroke-linecap:round; stroke-linejoin:round;">
<path style="fill:#000000; fill-opacity:1.0; 
stroke:#000000; stroke-width:0; stroke-opacity:1; 
stroke-linecap:round; stroke-linejoin:round;fill-rule:evenodd;"
d="M 44590,45090
43409,45090
43409,43909
44590,43909
44590,45090
Z" /> 
<circle cx="44000" cy="42531.5" r="590.551" /> 
</g>
<g style="fill:#000000; fill-opacity:1.0; 
stroke:#000000; stroke-width:39.3701; stroke-opacity:1; 
stroke-linecap:round; stroke-linejoin:round;">
</g>
<g style="fill:#000000; fill-opacity:1.0; 
stroke:#000000; stroke-width:0; stroke-opacity:1; 
stroke-linecap:round; stroke-linejoin:round;">
<circle cx="44000" cy="40563" r="590.551" /> 
</g>
<g style="fill:#000000; fill-opacity:1.0; 
stroke:#000000; stroke-width:39.3701; stroke-opacity:1; 
stroke-linecap:round; stroke-linejoin:round;">
</g>
<g style="fill:#000000; fill-opacity:1.0; 
stroke:#000000; stroke-width:0; stroke-opacity:1; 
stroke-linecap:round; stroke-linejoin:round;">
<circle cx="44000" cy="38594.5" r="590.551" /> 
</g>
<g style="fill:#000000; fill-opacity:1.0; 
stroke:#000000; stroke-width:39.3701; stroke-opacity:1; 
stroke-linecap:round; stroke-linejoin:round;">
</g>
<g style="fill:#000000; fill-opacity:1.0; 
stroke:#000000; stroke-width:0; stroke-opacity:1; 
stroke-linecap:round; stroke-linejoin:round;">
<circle cx="44000" cy="36626" r="590.551" /> 
</g>
<g style="fill:#000000; fill-opacity:1.0; 
stroke:#000000; stroke-width:39.3701; stroke-opacity:1; 
stroke-linecap:round; stroke-linejoin:round;">
</g>
<g style="fill:#000000; fill-opacity:1.0; 
stroke:#000000; stroke-width:0; stroke-opacity:1; 
stroke-linecap:round; stroke-linejoin:round;">
<circle cx="44000" cy="34657.5" r="590.551" /> 
</g>
<g style="fill:#000000; fill-opacity:1.0; 
stroke:#000000; stroke-width:39.3701; stroke-opacity:1; 
stroke-linecap:round; stroke-linejoin:round;">
</g>
<g >
</g>
<g style="fill:#000000; fill-opacity:1.0; 
stroke:#000000; stroke-width:39.3701; stroke-opacity:1; 
stroke-linecap:round; stroke-linejoin:round;">
</g>
<g style="fill:#000000; fill-opacity:1.0; 
stroke:#000000; stroke-width:0; stroke-opacity:1; 
stroke-linecap:round; stroke-linejoin:round;">
<path style="fill:#000000; fill-opacity:1.0; 
stroke:#000000; stroke-width:0; stroke-opacity:1; 
stroke-linecap:round; stroke-linejoin:round;fill-rule:evenodd;"
d="M 60185,45814
60185,45185
60814,45185
60814,45814
60185,45814
Z" /> 
</g>
<g style="fill:#000000; fill-opacity:1.0; 
stroke:#000000; stroke-width:629.921; stroke-opacity:1; 
stroke-linecap:round; stroke-linejoin:round;">
</g>
<g style="fill:#000000; fill-opacity:0.0; 
stroke:#000000; stroke-width:629.921; stroke-opacity:1; 
stroke-linecap:round; stroke-linejoin:round;">
<path d="M66500 32500
L66500 32500
" />
<path d="M60500 44500
L60500 44500
" />
<path d="M66500 33500
L66500 33500
" />
<path d="M60500 43500
L60500 43500
" />
<path d="M66500 34500
L66500 34500
" />
<path d="M60500 42500
L60500 42500
" />
<path d="M66500 35500
L66500 35500
" />
<path d="M60500 41500
L60500 41500
" />
<path d="M66500 36500
L66500 36500
" />
<path d="M60500 40500
L60500 40500
" />
<path d="M66500 37500
L66500 37500
" />
<path d="M60500 39500
L60500 39500
" />
<path d="M66500 38500
L66500 38500
" />
<path d="M60500 38500
L60500 38500
" />
<path d="M66500 39500
L66500 39500
" />
<path d="M60500 37500
L60500 37500
" />
<path d="M66500 40500
L66500 40500
" />
<path d="M60500 36500
L60500 36500
" />
<path d="M66500 41500
L66500 41500
" />
<path d="M60500 35500
L60500 35500
" />
<path d="M66500 42500
L66500 42500
" />
<path d="M60500 34500
L60500 34500
" />
<path d="M66500 43500
L66500 43500
" />
<path d="M60500 33500
L60500 33500
" />
<path d="M66500 44500
L66500 44500
" />
<path d="M60500 32500
L60500 32500
" />
<path d="M66500 45500
L66500 45500
" />
<path d="M60500 31500
L60500 31500
" />
<path d="M66500 31500
L66500 31500
" />
</g>
<g >
</g>
<g style="fill:#000000; fill-opacity:0.0; 
stroke:#000000; stroke-width:629.921; stroke-opacity:1; 
stroke-linecap:round; stroke-linejoin:round;">
</g>
<g style="fill:#000000; fill-opacity:1.0; 
stroke:#000000; stroke-width:0; stroke-opacity:1; 
stroke-linecap:round; stroke-linejoin:round;">
<circle cx="54000" cy="34500" r="393.701" /> 
</g>
<g style="fill:#000000; fill-opacity:1.0; 
stroke:#000000; stroke-width:39.3701; stroke-opacity:1; 
stroke-linecap:round; stroke-linejoin:round;">
</g>
<g style="fill:#000000; fill-opacity:1.0; 
stroke:#000000; stroke-width:0; stroke-opacity:1; 
stroke-linecap:round; stroke-linejoin:round;">
<circle cx="54000" cy="36500" r="393.701" /> 
</g>
<g style="fill:#000000; fill-opacity:1.0; 
stroke:#000000; stroke-width:39.3701; stroke-opacity:1; 
stroke-linecap:round; stroke-linejoin:round;">
</g>
<g style="fill:#000000; fill-opacity:1.0; 
stroke:#000000; stroke-width:0; stroke-opacity:1; 
stroke-linecap:round; stroke-linejoin:round;">
<circle cx="52000" cy="34500" r="393.701" /> 
</g>
<g style="fill:#000000; fill-opacity:1.0; 
stroke:#000000; stroke-width:39.3701; stroke-opacity:1; 
stroke-linecap:round; stroke-linejoin:round;">
</g>
<g style="fill:#000000; fill-opacity:1.0; 
stroke:#000000; stroke-width:0; stroke-opacity:1; 
stroke-linecap:round; stroke-linejoin:round;">
<circle cx="52000" cy="39500" r="393.701" /> 
</g>
<g style="fill:#000000; fill-opacity:1.0; 
stroke:#000000; stroke-width:39.3701; stroke-opacity:1; 
stroke-linecap:round; stroke-linejoin:round;">
</g>
<g >
</g>
<g style="fill:#000000; fill-opacity:1.0; 
stroke:#000000; stroke-width:39.3701; stroke-opacity:1; 
stroke-linecap:round; stroke-linejoin:round;">
</g>
<g style="fill:#000000; fill-opacity:1.0; 
stroke:#000000; stroke-width:393.701; stroke-opacity:1; 
stroke-linecap:round; stroke-linejoin:round;">
</g>
<g style="fill:#000000; fill-opacity:0.0; 
stroke:#000000; stroke-width:393.701; stroke-opacity:1; 
stroke-linecap:round; stroke-linejoin:round;">
<path d="M66500 31500
L64000 31500
" />
<path d="M63000 32500
L60500 32500
" />
<path d="M64000 31500
L63000 32500
" />
<path d="M44000 49125
L42125 49125
" />
<path d="M42125 23625
L44000 23625
" />
<path d="M44000 36625
L42125 36625
" />
<path d="M42125 49125
L42125 36625
" />
<path d="M42125 36625
L42125 23625
" />
<path d="M45125 35500
L44000 36625
" />
<path d="M60500 35500
L45125 35500
" />
<path d="M60500 36500
L54000 36500
" />
<path d="M54000 36500
L54000 36500
" />
<path d="M47062 27562
L44000 27562
" />
<path d="M54000 34500
L47062 27562
" />
<path d="M63000 39000
L61500 37500
" />
<path d="M54000 58500
L63000 49500
" />
<path d="M60500 37500
L61500 37500
" />
<path d="M44000 53062
L42000 55062
" />
<path d="M42000 55062
L42000 58000
" />
<path d="M42000 58000
L42500 58500
" />
<path d="M63000 49500
L63000 39000
" />
<path d="M42500 58500
L54000 58500
" />
<path d="M46062 38500
L44000 40562
" />
<path d="M60500 38500
L46062 38500
" />
<path d="M52000 34500
L52000 34500
" />
<path d="M60500 39500
L52000 39500
" />
<path d="M52000 39500
L52000 39500
" />
<path d="M44000 32484
L44000 31500
" />
<path d="M46015 34500
L44000 32484
" />
<path d="M52000 34500
L46015 34500
" />
<path d="M60500 40500
L61000 40500
" />
<path d="M61500 41000
L61500 48000
" />
<path d="M61000 40500
L61500 41000
" />
<path d="M52500 57000
L44000 57000
" />
<path d="M61500 48000
L52500 57000
" />
<path d="M60500 41500
L51000 41500
" />
<path d="M48000 44500
L44000 44500
" />
<path d="M51000 41500
L48000 44500
" />
</g>
<g >
</g>
<g style="fill:#000000; fill-opacity:0.0; 
stroke:#000000; stroke-width:393.701; stroke-opacity:1; 
stroke-linecap:round; stroke-linejoin:round;">
</g>
<g style="fill:#000000; fill-opacity:1.0; 
stroke:#000000; stroke-width:100; stroke-opacity:1; 
stroke-linecap:round; stroke-linejoin:round;">
<path style="fill:#000000; fill-opacity:1.0; 
stroke:#000000; stroke-width:100; stroke-opacity:1; 
stroke-linecap:round; stroke-linejoin:round;fill-rule:evenodd;"
d="M 69730,59230
40269,59230
40269,55062
41550,55062
41553,55084
41553,57978
41550,58000
41559,58087
41585,58171
41585,58171
41626,58249
41682,58317
41699,58331
42168,58800
42182,58817
42250,58873
42328,58914
42392,58934
42412,58940
42420,58941
42478,58946
42478,58946
42499,58949
42521,58946
53978,58946
54000,58949
54021,58946
54021,58946
54087,58940
54171,58914
54249,58873
54317,58817
54331,58800
63300,49831
63317,49817
63373,49749
63414,49671
63440,49587
63443,49560
63449,49500
63446,49478
63446,45500
65932,45500
65943,45610
65975,45717
66027,45815
66098,45901
66184,45972
66282,46024
66389,46056
66472,46064
66527,46064
66610,46056
66717,46024
66815,45972
66901,45901
66972,45815
67024,45717
67056,45610
67067,45500
67056,45389
67024,45282
66972,45184
66901,45098
66815,45027
66761,44998
66836,44953
66918,44879
66984,44790
67031,44690
67047,44637
66999,44550
66550,44550
66550,44557
66450,44557
66450,44550
66000,44550
65952,44637
65968,44690
66015,44790
66081,44879
66163,44953
66238,44998
66184,45027
66098,45098
66027,45184
65975,45282
65943,45389
65932,45500
63446,45500
63446,39021
63449,39000
63446,38972
63440,38912
63414,38828
63373,38750
63372,38749
63331,38699
63331,38699
63317,38682
63300,38668
62131,37500
65932,37500
65943,37610
65975,37717
66027,37815
66098,37901
66184,37972
66236,38000
66184,38027
66098,38098
66027,38184
65975,38282
65943,38389
65932,38500
65943,38610
65975,38717
66027,38815
66098,38901
66184,38972
66236,39000
66184,39027
66098,39098
66027,39184
65975,39282
65943,39389
65932,39500
65943,39610
65975,39717
66027,39815
66098,39901
66184,39972
66236,40000
66184,40027
66098,40098
66027,40184
65975,40282
65943,40389
65932,40500
65943,40610
65975,40717
66027,40815
66098,40901
66184,40972
66236,41000
66184,41027
66098,41098
66027,41184
65975,41282
65943,41389
65932,41500
65943,41610
65975,41717
66027,41815
66098,41901
66184,41972
66236,42000
66184,42027
66098,42098
66027,42184
65975,42282
65943,42389
65932,42500
65943,42610
65975,42717
66027,42815
66098,42901
66184,42972
66236,43000
66184,43027
66098,43098
66027,43184
65975,43282
65943,43389
65932,43500
65943,43610
65975,43717
66027,43815
66098,43901
66184,43972
66238,44001
66163,44046
66081,44120
66015,44209
65968,44309
65952,44362
66000,44450
66450,44450
66450,44442
66550,44442
66550,44450
66999,44450
67047,44362
67031,44309
66984,44209
66918,44120
66836,44046
66761,44001
66815,43972
66901,43901
66972,43815
67024,43717
67056,43610
67067,43500
67056,43389
67024,43282
66972,43184
66901,43098
66815,43027
66763,43000
66815,42972
66901,42901
66972,42815
67024,42717
67056,42610
67067,42500
67056,42389
67024,42282
66972,42184
66901,42098
66815,42027
66763,42000
66815,41972
66901,41901
66972,41815
67024,41717
67056,41610
67067,41500
67056,41389
67024,41282
66972,41184
66901,41098
66815,41027
66763,41000
66815,40972
66901,40901
66972,40815
67024,40717
67056,40610
67067,40500
67056,40389
67024,40282
66972,40184
66901,40098
66815,40027
66763,40000
66815,39972
66901,39901
66972,39815
67024,39717
67056,39610
67067,39500
67056,39389
67024,39282
66972,39184
66901,39098
66815,39027
66763,39000
66815,38972
66901,38901
66972,38815
67024,38717
67056,38610
67067,38500
67056,38389
67024,38282
66972,38184
66901,38098
66815,38027
66763,38000
66815,37972
66901,37901
66972,37815
67024,37717
67056,37610
67067,37500
67056,37389
67024,37282
66972,37184
66901,37098
66815,37027
66761,36998
66836,36953
66918,36879
66984,36790
67031,36690
67047,36637
66999,36550
66550,36550
66550,36557
66450,36557
66450,36550
66000,36550
65952,36637
65968,36690
66015,36790
66081,36879
66163,36953
66238,36998
66184,37027
66098,37098
66027,37184
65975,37282
65943,37389
65932,37500
62131,37500
61831,37199
61817,37182
61749,37126
61671,37085
61587,37059
61521,37053
61521,37053
61500,37050
61478,37053
60846,37053
60815,37027
60763,37000
60815,36972
60901,36901
60972,36815
61024,36717
61056,36610
61067,36500
61056,36389
61024,36282
60972,36184
60901,36098
60815,36027
60763,36000
60815,35972
60901,35901
60972,35815
61024,35717
61048,35637
65952,35637
65968,35690
66015,35790
66081,35879
66163,35953
66240,36000
66163,36046
66081,36120
66015,36209
65968,36309
65952,36362
66000,36450
66450,36450
66450,35550
66550,35550
66550,36450
66999,36450
67047,36362
67031,36309
66984,36209
66918,36120
66836,36046
66759,36000
66836,35953
66918,35879
66984,35790
67031,35690
67047,35637
66999,35550
66550,35550
66450,35550
66000,35550
65952,35637
61048,35637
61056,35610
61067,35500
61056,35389
61024,35282
60972,35184
60901,35098
60815,35027
60763,35000
60815,34972
60901,34901
60972,34815
61024,34717
61048,34637
65952,34637
65968,34690
66015,34790
66081,34879
66163,34953
66240,35000
66163,35046
66081,35120
66015,35209
65968,35309
65952,35362
66000,35450
66450,35450
66450,34550
66550,34550
66550,35450
66999,35450
67047,35362
67031,35309
66984,35209
66918,35120
66836,35046
66759,35000
66836,34953
66918,34879
66984,34790
67031,34690
67047,34637
66999,34550
66550,34550
66450,34550
66000,34550
65952,34637
61048,34637
61056,34610
61067,34500
61056,34389
61024,34282
60972,34184
60901,34098
60815,34027
60763,34000
60815,33972
60901,33901
60972,33815
61024,33717
61056,33610
61067,33500
61056,33389
61024,33282
60972,33184
60901,33098
60815,33027
60763,33000
60815,32972
60846,32946
62978,32946
63000,32949
63021,32946
63021,32946
63087,32940
63171,32914
63249,32873
63317,32817
63331,32800
64185,31946
66153,31946
66184,31972
66236,32000
66184,32027
66098,32098
66027,32184
65975,32282
65943,32389
65932,32500
65943,32610
65975,32717
66027,32815
66098,32901
66184,32972
66236,33000
66184,33027
66098,33098
66027,33184
65975,33282
65943,33389
65932,33500
65943,33610
65975,33717
66027,33815
66098,33901
66184,33972
66238,34001
66163,34046
66081,34120
66015,34209
65968,34309
65952,34362
66000,34450
66450,34450
66450,34442
66550,34442
66550,34450
66999,34450
67047,34362
67031,34309
66984,34209
66918,34120
66836,34046
66761,34001
66815,33972
66901,33901
66972,33815
67024,33717
67056,33610
67067,33500
67056,33389
67024,33282
66972,33184
66901,33098
66815,33027
66763,33000
66815,32972
66901,32901
66972,32815
67024,32717
67056,32610
67067,32500
67056,32389
67024,32282
66972,32184
66901,32098
66815,32027
66763,32000
66815,31972
66901,31901
66972,31815
67024,31717
67056,31610
67067,31500
67056,31389
67024,31282
66972,31184
66901,31098
66815,31027
66717,30975
66610,30943
66527,30935
66472,30935
66389,30943
66282,30975
66184,31027
66153,31053
64021,31053
63999,31050
63978,31053
63978,31053
63912,31059
63828,31085
63750,31126
63682,31182
63668,31199
62814,32053
60846,32053
60815,32027
60763,32000
60815,31972
60901,31901
60972,31815
61024,31717
61056,31610
61067,31500
61056,31389
61024,31282
60972,31184
60901,31098
60815,31027
60717,30975
60610,30943
60527,30935
60472,30935
60389,30943
60282,30975
60184,31027
60098,31098
60027,31184
59975,31282
59943,31389
59932,31500
59943,31610
59975,31717
60027,31815
60098,31901
60184,31972
60236,32000
60184,32027
60098,32098
60027,32184
59975,32282
59943,32389
59932,32500
59943,32610
59975,32717
60027,32815
60098,32901
60184,32972
60236,33000
60184,33027
60098,33098
60027,33184
59975,33282
59943,33389
59932,33500
59943,33610
59975,33717
60027,33815
60098,33901
60184,33972
60236,34000
60184,34027
60098,34098
60027,34184
59975,34282
59943,34389
59932,34500
59943,34610
59975,34717
60027,34815
60098,34901
60184,34972
60236,35000
60184,35027
60153,35053
54330,35053
54410,34999
54499,34910
54570,34804
54618,34687
54643,34563
54643,34436
54618,34312
54570,34195
54499,34089
54410,34000
54304,33929
54187,33881
54063,33856
53988,33856
47394,27262
47380,27245
47312,27189
47234,27148
47150,27122
47084,27116
47084,27116
47062,27113
47041,27116
44712,27116
44652,27027
44535,26910
44398,26818
44245,26754
44082,26722
43917,26722
43754,26754
43601,26818
43464,26910
43347,27027
43255,27164
43191,27317
43159,27480
43159,27645
43191,27808
43255,27961
43347,28098
43464,28215
43601,28307
43754,28371
43917,28403
44082,28403
44245,28371
44398,28307
44535,28215
44652,28098
44712,28009
46877,28009
53356,34488
53356,34563
53381,34687
53429,34804
53500,34910
53589,34999
53669,35053
52330,35053
52410,34999
52499,34910
52570,34804
52618,34687
52643,34563
52643,34436
52618,34312
52570,34195
52499,34089
52410,34000
52304,33929
52187,33881
52063,33856
51936,33856
51812,33881
51695,33929
51589,34000
51536,34053
46200,34053
44489,32341
44590,32341
44639,32336
44686,32322
44730,32299
44768,32268
44799,32230
44822,32186
44836,32139
44841,32090
44841,30909
44836,30860
44822,30813
44799,30769
44768,30731
44730,30700
44686,30677
44639,30663
44590,30658
43409,30658
43360,30663
43313,30677
43269,30700
43231,30731
43200,30769
43177,30813
43163,30860
43158,30909
43158,32090
43163,32139
43177,32186
43200,32230
43231,32268
43269,32299
43313,32322
43360,32336
43409,32341
43553,32341
43553,32462
43550,32484
43553,32506
43559,32571
43585,32656
43626,32733
43682,32801
43699,32815
45684,34800
45698,34817
45766,34873
45843,34914
45928,34940
45993,34946
45993,34946
46015,34949
46037,34946
51536,34946
51589,34999
51669,35053
45147,35053
45125,35050
45104,35053
45038,35059
44954,35085
44876,35126
44808,35182
44794,35199
44187,35806
44082,35785
43917,35785
43754,35817
43601,35881
43464,35973
43347,36090
43287,36179
42572,36179
42572,35244
43483,35244
43544,35368
43692,35444
43851,35488
44016,35501
44181,35482
44338,35431
44455,35368
44516,35244
44000,34728
43483,35244
42572,35244
42572,34674
43155,34674
43175,34838
43226,34996
43288,35112
43412,35174
43929,34657
44070,34657
44587,35174
44711,35112
44786,34965
44831,34805
44844,34640
44824,34476
44773,34318
44711,34202
44587,34140
44070,34657
43929,34657
43412,34140
43288,34202
43213,34349
43168,34509
43155,34674
42572,34674
42572,34070
43483,34070
44000,34586
44516,34070
44455,33945
44307,33870
44148,33825
43983,33813
43818,33832
43661,33883
43544,33945
43483,34070
42572,34070
42572,30118
43483,30118
43544,30242
43692,30318
43851,30363
44016,30375
44181,30356
44338,30305
44455,30242
44516,30118
44000,29602
43483,30118
42572,30118
42572,29548
43155,29548
43175,29712
43226,29870
43288,29986
43412,30048
43929,29531
44070,29531
44587,30048
44711,29986
44786,29839
44831,29679
44844,29514
44824,29350
44773,29192
44711,29076
44587,29014
44070,29531
43929,29531
43412,29014
43288,29076
43213,29223
43168,29383
43155,29548
42572,29548
42572,28944
43483,28944
44000,29460
44516,28944
44455,28819
44307,28744
44148,28699
43983,28687
43818,28706
43661,28757
43544,28819
43483,28944
42572,28944
42572,26181
43483,26181
43544,26305
43692,26381
43851,26426
44016,26438
44181,26419
44338,26368
44455,26305
44516,26181
44000,25665
43483,26181
42572,26181
42572,25611
43155,25611
43175,25775
43226,25933
43288,26049
43412,26111
43929,25594
44070,25594
44587,26111
44711,26049
44786,25902
44831,25742
44844,25577
44824,25413
44773,25255
44711,25139
44587,25077
44070,25594
43929,25594
43412,25077
43288,25139
43213,25286
43168,25446
43155,25611
42572,25611
42572,25007
43483,25007
44000,25523
44516,25007
44455,24882
44307,24807
44148,24762
43983,24750
43818,24769
43661,24820
43544,24882
43483,25007
42572,25007
42572,24072
43287,24072
43347,24161
43464,24278
43601,24370
43754,24434
43917,24466
44082,24466
44245,24434
44398,24370
44535,24278
44652,24161
44744,24024
44808,23871
44840,23708
44840,23543
44808,23380
44744,23227
44652,23090
44535,22973
44398,22881
44245,22817
44082,22785
43917,22785
43754,22817
43601,22881
43464,22973
43347,23090
43287,23179
42147,23179
42125,23176
42104,23179
42104,23179
42038,23185
41954,23211
41876,23252
41808,23308
41752,23376
41711,23454
41685,23538
41676,23625
41679,23647
41679,36604
41676,36625
41679,36647
41679,49104
41676,49125
41685,49213
41711,49297
41752,49375
41808,49443
41876,49499
41954,49540
42038,49566
42101,49572
42125,49574
42147,49572
43287,49572
43347,49661
43464,49778
43601,49870
43754,49934
43917,49966
44082,49966
44245,49934
44398,49870
44535,49778
44652,49661
44686,49611
47262,49611
47262,49611
47262,49611
47262,49737
47262,49737
47262,49737
47262,49851
47262,49851
47262,49851
47262,49954
47262,49954
47262,49954
47262,50046
47262,50046
47262,50046
47262,50128
47262,50128
47262,50129
47263,50201
47263,50202
47263,50202
47263,50245
47263,50245
47264,50266
47264,50266
47264,50267
47264,50322
47264,50322
47264,50324
47265,50372
47265,50372
47265,50374
47266,50414
47266,50414
47266,50417
47268,50451
47268,50452
47268,50452
47268,50455
47270,50484
47270,50485
47270,50486
47270,50490
47272,50512
47272,50515
47272,50518
47273,50521
47275,50539
47276,50544
47276,50549
47277,50553
47279,50567
47281,50575
47282,50584
47283,50587
47286,50598
47291,50611
47295,50625
47296,50628
47299,50636
47302,50642
47303,50644
47305,50647
47306,50649
47306,50651
47309,50655
47309,50656
47319,50676
47321,50679
47324,50684
47328,50689
47331,50694
47340,50705
47341,50707
47345,50710
47355,50723
47359,50727
47363,50731
47365,50733
47369,50737
47372,50739
47375,50742
47388,50751
47392,50755
47396,50757
47408,50766
47412,50768
47416,50771
47419,50772
47423,50775
47438,50781
47453,50789
47457,50790
47461,50792
47463,50792
47465,50793
47466,50794
47467,50794
47470,50795
47473,50796
47482,50799
47482,50799
47486,50800
47489,50800
47504,50806
47507,50806
47512,50808
47518,50808
47521,50809
47523,50809
47530,50811
47533,50811
47541,50813
47545,50813
47550,50814
47553,50814
47565,50815
47566,50815
47568,50815
47572,50815
47587,50816
47588,50816
47588,50816
47592,50817
47611,50817
47611,50817
47614,50818
47639,50818
47639,50818
47641,50818
47672,50819
47672,50819
47673,50819
47710,50820
47710,50820
47711,50820
47754,50820
47754,50820
47755,50820
47805,50821
47805,50821
47806,50821
47864,50821
47864,50821
47865,50821
47932,50821
47932,50821
47932,50821
48008,50822
48008,50822
48008,50822
48032,50822
48031,50827
48030,50830
48028,50855
48028,50861
48027,50868
48027,50871
48027,50884
48027,50884
48026,50904
48027,50905
48026,50907
48026,50910
48026,50952
48026,50952
48026,50953
48027,51006
48027,51045
48027,51045
48027,51046
48027,51087
48027,51087
48027,51089
48027,51120
48027,51120
48027,51121
48027,51124
48028,51148
48028,51150
48028,51152
48028,51156
48029,51173
48030,51179
48030,51186
48031,51190
48032,51201
48036,51216
48038,51231
48039,51234
48041,51242
48041,51244
48042,51246
48047,51259
48047,51259
48047,51260
48050,51267
48058,51288
48059,51290
48060,51291
48061,51294
48064,51300
48065,51302
48066,51304
48079,51322
48083,51329
48084,51330
48084,51330
48085,51331
48087,51335
48088,51336
48091,51341
48093,51342
48094,51344
48097,51347
48100,51351
48110,51361
48120,51371
48122,51374
48126,51377
48127,51378
48128,51378
48133,51382
48136,51385
48143,51389
48147,51392
48147,51392
48149,51394
48151,51395
48166,51406
48167,51406
48168,51407
48171,51409
48177,51413
48184,51416
48191,51420
48207,51425
48222,51432
48230,51434
48237,51437
48240,51437
48250,51440
48267,51442
48284,51446
48287,51446
48303,51448
48309,51448
48315,51449
48319,51449
48342,51449
48343,51449
48344,51449
48348,51449
48381,51450
48381,51450
48384,51450
48409,51449
48412,51449
48414,51449
48418,51449
48474,51447
48481,51446
48488,51446
48492,51446
48539,51440
48550,51438
48561,51437
48565,51436
48604,51427
48619,51422
48635,51418
48638,51417
48672,51404
48688,51396
48706,51388
48709,51387
48722,51379
48728,51385
48730,51386
48734,51390
48737,51392
48741,51395
48746,51398
48750,51401
48767,51410
48784,51420
48789,51422
48794,51424
48797,51425
48803,51428
48824,51434
48826,51434
48831,51436
48831,51436
48832,51436
48844,51440
48848,51441
48857,51443
48868,51444
48879,51446
48882,51446
48896,51447
48901,51447
48905,51448
48908,51448
48929,51449
48930,51449
48931,51449
48935,51449
48963,51449
48963,51449
48965,51449
49002,51450
49002,51450
49003,51450
49050,51450
49050,51450
49051,51450
49073,51450
49073,51450
49073,51450
49116,51450
49116,51450
49117,51450
49150,51449
49150,51449
49151,51449
49154,51449
49178,51449
49181,51448
49183,51448
49187,51448
49204,51447
49211,51446
49217,51446
49221,51446
49233,51444
49247,51441
49262,51439
49265,51438
49273,51436
49275,51435
49277,51435
49291,51430
49292,51429
49294,51429
49298,51427
49320,51419
49321,51418
49323,51417
49324,51417
49337,51421
49348,51424
49359,51428
49362,51429
49385,51434
49391,51435
49396,51437
49400,51437
49401,51438
49406,51438
49411,51439
49414,51440
49436,51442
49440,51442
49444,51443
49448,51443
49478,51446
49480,51446
49482,51446
49485,51446
49519,51448
49521,51448
49522,51448
49526,51448
49560,51449
49561,51449
49561,51449
49565,51449
49573,51449
49575,51449
49577,51449
49580,51449
49632,51447
49639,51446
49647,51447
49651,51446
49693,51442
49706,51439
49719,51438
49722,51437
49756,51430
49775,51423
49794,51418
49797,51417
49825,51405
49845,51395
49858,51403
49874,51412
49889,51422
49896,51424
49901,51427
49919,51432
49935,51439
49942,51440
49948,51442
49966,51444
49984,51447
49988,51447
50006,51448
50029,51447
50052,51446
50053,51446
50055,51445
50077,51440
50100,51435
50101,51434
50103,51434
50124,51424
50145,51414
50147,51413
50147,51413
50147,51413
50148,51413
50165,51402
50174,51396
50184,51390
50194,51381
50197,51379
50197,51379
50200,51381
50242,51402
50263,51409
50283,51417
50286,51418
50331,51431
50345,51434
50360,51438
50363,51438
50392,51442
50400,51443
50407,51444
50411,51444
50460,51448
50470,51448
50480,51448
50483,51448
50530,51447
50541,51446
50552,51446
50556,51445
50599,51440
50612,51437
50625,51435
50629,51435
50666,51425
50685,51419
50703,51413
50706,51412
50728,51402
50731,51404
50751,51418
50752,51418
50752,51418
50774,51427
50796,51436
50797,51436
50798,51437
50821,51441
50845,51446
50846,51446
50846,51446
50846,51446
50848,51446
50866,51447
50886,51447
50905,51448
50910,51447
50916,51447
50935,51443
50954,51439
50959,51438
50964,51436
50981,51429
51000,51422
51003,51420
51022,51410
51023,51410
51024,51409
51041,51398
51050,51393
51053,51391
51061,51397
51075,51404
51088,51413
51091,51415
51104,51421
51112,51424
51120,51428
51135,51433
51150,51439
51158,51440
51167,51443
51170,51443
51180,51445
51185,51446
51189,51447
51209,51448
51229,51450
51234,51449
51239,51449
51258,51446
51278,51444
51283,51443
51287,51442
51291,51441
51299,51439
51321,51431
51323,51430
51325,51430
51326,51429
51344,51422
51344,51422
51345,51422
51361,51412
51366,51415
51372,51417
51377,51420
51381,51422
51387,51424
51406,51431
51412,51433
51415,51433
51419,51435
51421,51436
51422,51436
51432,51439
51433,51439
51433,51439
51433,51439
51436,51440
51445,51442
51457,51443
51469,51446
51472,51446
51486,51447
51491,51447
51496,51448
51499,51448
51519,51449
51520,51449
51521,51449
51525,51449
51552,51449
51552,51449
51555,51449
51591,51450
51591,51450
51592,51450
51638,51450
51638,51450
51638,51450
51649,51450
51649,51450
51649,51450
51695,51449
51695,51449
51697,51449
51733,51449
51733,51449
51733,51449
51737,51449
51763,51448
51766,51448
51768,51448
51771,51448
51791,51447
51797,51446
51803,51446
51807,51445
51820,51444
51834,51441
51847,51439
51851,51438
51860,51436
51861,51435
51862,51435
51868,51433
51868,51433
51869,51433
51884,51427
51887,51426
51892,51425
51895,51423
51902,51420
51908,51423
51921,51430
51931,51433
51940,51437
51954,51440
51967,51444
51978,51445
51988,51448
52002,51448
52016,51450
52020,51450
52107,51449
52107,51449
52108,51449
52126,51449
52128,51449
52129,51449
52133,51449
52184,51447
52190,51446
52196,51447
52199,51446
52242,51442
52251,51440
52261,51440
52264,51439
52300,51432
52313,51429
52326,51426
52330,51425
52359,51415
52374,51409
52389,51404
52392,51402
52419,51390
52425,51386
52431,51383
52434,51381
52436,51380
52440,51378
52443,51376
52446,51374
52477,51355
52490,51344
52505,51335
52507,51332
52529,51313
52546,51295
52563,51278
52563,51277
52563,51277
52563,51277
52565,51275
52582,51252
52592,51235
52603,51219
52605,51216
52620,51187
52622,51181
52625,51176
52626,51173
52629,51168
52631,51161
52635,51154
52636,51150
52648,51117
52648,51116
52648,51115
52654,51092
52660,51070
52660,51069
52660,51068
52660,51064
52664,51035
52664,51026
52666,51017
52665,51002
52665,50986
52664,50977
52663,50968
52663,50965
52658,50936
52658,50935
52658,50934
52652,50911
52646,50888
52646,50887
52646,50887
52644,50883
52634,50858
52732,50858
52733,50868
52734,50878
52737,50892
52737,50893
52737,50895
52739,50907
52740,50910
52742,50919
52744,50925
52744,50926
52745,50928
52746,50930
52749,50941
52750,50944
52757,50962
52758,50964
52758,50967
52760,50970
52770,50995
52770,50995
52770,50996
52772,50999
52785,51030
52785,51030
52786,51032
52801,51067
52801,51067
52802,51069
52819,51106
52819,51106
52819,51108
52837,51146
52837,51146
52837,51147
52855,51184
52855,51184
52855,51186
52872,51220
52872,51220
52873,51223
52888,51253
52888,51253
52888,51253
52889,51256
52902,51280
52903,51283
52904,51285
52906,51288
52915,51304
52922,51315
52928,51326
52930,51328
52935,51336
52941,51343
52943,51345
52945,51347
52950,51353
52964,51370
52966,51372
52967,51373
52985,51387
53003,51401
53005,51402
53006,51403
53026,51413
53046,51424
53050,51425
53068,51432
53082,51436
53096,51441
53105,51443
53115,51445
53130,51447
53144,51449
53154,51448
53164,51449
53179,51447
53193,51447
53197,51446
53219,51443
53239,51438
53259,51434
53262,51432
53266,51431
53276,51426
53283,51429
53300,51437
53306,51438
53311,51440
53330,51443
53348,51447
53354,51447
53360,51447
53363,51448
53382,51449
53385,51448
53389,51449
53410,51447
53431,51446
53434,51445
53438,51445
53458,51439
53478,51434
53482,51433
53485,51432
53488,51430
53504,51424
53513,51419
53522,51416
53535,51408
53548,51401
53555,51395
53564,51390
53571,51383
53585,51393
53602,51405
53605,51406
53621,51416
53630,51420
53639,51425
53653,51429
53666,51435
53676,51437
53686,51441
53700,51443
53714,51446
53724,51446
53734,51447
53738,51447
53757,51448
53757,51448
53757,51448
53781,51446
53806,51444
53806,51444
53806,51444
53830,51438
53853,51431
53853,51431
53853,51431
53875,51420
53897,51409
53897,51409
53897,51409
53900,51407
53917,51396
53926,51389
53935,51383
53936,51382
53940,51385
53943,51387
53959,51399
53978,51411
53997,51422
54000,51423
54001,51424
54023,51432
54044,51439
54046,51440
54048,51440
54070,51443
54092,51447
54096,51447
54114,51448
54137,51447
54160,51446
54161,51445
54163,51445
54185,51440
54207,51434
54209,51434
54210,51433
54231,51423
54252,51414
54255,51412
54255,51412
54255,51412
54255,51412
54272,51402
54283,51394
54295,51387
54301,51381
54302,51382
54313,51389
54323,51397
54333,51402
54343,51409
54346,51411
54364,51420
54382,51427
54400,51435
54405,51437
54409,51438
54429,51442
54448,51446
54453,51447
54458,51447
54478,51447
54498,51448
54501,51448
54519,51446
54542,51442
54565,51438
54566,51437
54568,51437
54589,51429
54611,51421
54612,51420
54613,51419
54633,51407
54652,51395
54654,51393
54664,51399
54680,51410
54685,51412
54691,51415
54694,51417
54711,51425
54724,51429
54736,51435
54747,51437
54757,51441
54771,51443
54784,51446
54795,51446
54806,51448
54819,51447
54833,51448
54836,51448
54855,51446
54879,51442
54903,51438
54903,51438
54903,51438
54926,51429
54949,51420
54949,51420
54949,51420
54970,51407
54990,51394
54991,51394
54991,51394
54991,51394
54993,51392
55009,51379
55014,51375
55018,51371
55031,51358
55045,51345
55048,51340
55052,51335
55054,51333
55057,51329
55064,51317
55072,51306
55074,51303
55077,51297
55080,51290
55082,51287
55084,51281
55086,51276
55096,51255
55097,51252
55097,51252
55097,51252
55097,51251
55100,51244
55103,51227
55108,51211
55109,51207
55110,51197
55111,51188
55113,51179
55113,51175
55114,51160
55114,51156
55115,51153
55115,51149
55115,51128
55115,51127
55116,51126
55116,51123
55116,51094
55116,51094
55116,51091
55116,51054
55116,51054
55116,51053
55116,51004
55116,51004
55116,51004
55116,50842
55114,50819
55112,50796
55112,50794
55111,50793
55105,50771
55098,50749
55098,50747
55097,50746
55086,50726
55076,50705
55075,50704
55074,50703
55059,50685
55045,50666
55043,50665
55043,50665
55043,50665
55042,50664
55028,50649
55013,50637
54998,50624
54995,50622
54979,50610
54965,50602
54951,50593
54943,50590
54936,50586
54921,50581
54905,50574
54897,50573
54890,50570
54873,50568
54857,50565
54854,50565
54836,50563
54832,50563
54827,50563
54807,50564
54787,50564
54783,50565
54778,50565
54759,50570
54739,50575
54735,50576
54730,50578
54712,50586
54694,50594
54690,50597
54686,50599
54683,50600
54666,50611
54656,50619
54655,50620
54642,50610
54627,50602
54614,50593
54606,50590
54599,50586
54583,50581
54568,50574
54560,50573
54552,50570
54536,50568
54520,50565
54516,50565
54499,50563
54494,50563
54490,50563
54470,50564
54450,50564
54445,50565
54441,50565
54421,50570
54402,50575
54397,50576
54393,50578
54385,50581
54381,50580
54379,50579
54377,50578
54368,50575
54366,50575
54366,50575
54366,50575
54365,50574
54357,50572
54344,50570
54331,50567
54327,50567
54315,50565
54309,50565
54303,50564
54300,50564
54282,50563
54280,50563
54278,50563
54275,50563
54250,50562
54250,50562
54250,50562
54246,50562
54214,50561
54214,50561
54212,50561
54171,50561
54171,50561
54170,50561
54118,50561
54118,50561
54118,50561
54108,50561
54108,50561
54107,50561
54058,50561
54058,50561
54057,50561
54018,50561
54018,50561
54016,50561
53986,50562
53985,50562
53985,50562
53981,50562
53959,50562
53956,50563
53954,50563
53950,50563
53934,50564
53927,50565
53920,50565
53917,50566
53906,50567
53891,50571
53876,50573
53872,50574
53865,50576
53863,50577
53862,50577
53858,50578
53858,50579
53857,50579
53852,50581
53846,50579
53839,50576
53835,50575
53823,50571
53804,50568
53785,50563
53780,50563
53775,50562
53755,50562
53736,50562
53731,50562
53726,50562
53707,50566
53687,50569
53684,50570
53673,50573
53665,50576
53657,50578
53642,50585
53640,50586
53637,50585
53630,50582
53626,50580
53616,50577
53607,50575
53607,50574
53607,50574
53603,50574
53591,50569
53580,50568
53568,50565
53555,50564
53542,50562
53539,50562
53530,50562
53521,50563
53521,50563
53513,50562
53497,50564
53481,50565
53473,50567
53464,50569
53449,50574
53433,50578
53426,50582
53418,50584
53415,50586
53406,50590
53391,50599
53389,50600
53388,50601
53373,50609
53368,50612
53364,50615
53349,50628
53335,50640
53332,50643
53323,50652
53321,50655
53321,50654
53309,50652
53305,50652
53295,50651
53286,50651
53284,50651
53281,50651
53280,50651
53265,50650
53262,50650
53256,50650
53256,50650
53256,50650
53250,50651
53246,50651
53238,50653
53232,50654
53230,50654
53228,50651
53226,50649
53219,50642
53211,50636
53204,50628
53192,50620
53181,50611
53172,50606
53164,50600
53161,50598
53155,50595
53143,50590
53138,50588
53134,50586
53130,50584
53124,50582
53112,50577
53110,50576
53109,50576
53109,50576
53108,50576
53103,50574
53093,50572
53083,50569
53069,50567
53055,50564
53045,50564
53034,50563
53031,50563
53018,50563
53003,50564
52989,50564
52979,50566
52969,50567
52955,50571
52940,50574
52931,50578
52921,50581
52909,50588
52895,50594
52892,50595
52878,50603
52869,50609
52861,50614
52857,50617
52852,50620
52850,50622
52849,50623
52843,50628
52838,50632
52831,50638
52823,50645
52821,50647
52809,50659
52801,50669
52792,50679
52786,50688
52778,50698
52773,50709
52766,50720
52764,50723
52758,50735
52753,50749
52747,50761
52745,50768
52742,50777
52741,50779
52741,50781
52738,50795
52735,50809
52734,50817
52733,50825
52732,50829
52732,50829
52732,50829
52732,50829
52733,50839
52733,50843
52732,50858
52634,50858
52632,50851
52629,50845
52626,50838
52625,50835
52624,50834
52620,50826
52616,50817
52614,50814
52593,50778
52579,50759
52565,50739
52564,50738
52564,50738
52564,50738
52563,50737
52536,50707
52535,50706
52534,50705
52517,50689
52500,50674
52499,50673
52497,50672
52495,50670
52462,50646
52441,50634
52420,50622
52419,50622
52419,50622
52419,50622
52416,50621
52376,50603
52358,50597
52340,50591
52336,50590
52288,50578
52274,50576
52261,50573
52257,50572
52200,50565
52191,50565
52182,50564
52178,50564
52111,50561
52108,50561
52106,50561
52102,50561
52101,50561
52101,50561
52100,50561
52068,50561
52067,50561
52066,50561
52063,50561
52041,50562
52034,50563
52027,50563
52024,50563
52009,50564
51991,50568
51972,50570
51969,50571
51959,50574
51952,50576
51944,50578
51929,50585
51913,50591
51909,50593
51903,50591
51901,50590
51899,50589
51878,50582
51857,50575
51854,50575
51852,50574
51848,50573
51833,50570
51820,50569
51808,50566
51805,50566
51782,50564
51777,50564
51773,50563
51769,50563
51738,50562
51737,50562
51736,50562
51732,50562
51692,50561
51692,50561
51690,50561
51639,50561
51639,50561
51639,50561
51486,50561
51473,50562
51459,50563
51448,50565
51437,50566
51424,50570
51411,50573
51401,50577
51390,50580
51378,50587
51366,50592
51357,50598
51356,50598
51356,50598
51349,50593
51334,50587
51319,50580
51311,50578
51303,50575
51287,50572
51271,50567
51263,50567
51255,50565
51251,50565
51234,50563
51211,50564
51188,50564
51187,50564
51185,50564
51163,50569
51140,50573
51139,50574
51137,50574
51116,50583
51095,50592
51092,50594
51074,50603
51059,50614
51050,50618
51049,50620
51048,50619
51039,50614
51030,50607
51027,50605
51014,50598
50993,50588
50972,50578
50970,50577
50970,50577
50970,50577
50968,50577
50959,50574
50939,50569
50920,50564
50916,50563
50911,50562
50897,50562
50897,50562
50897,50562
50891,50562
50871,50560
50868,50560
50860,50561
50854,50562
50848,50561
50830,50565
50812,50567
50806,50569
50800,50571
50783,50577
50765,50583
50760,50587
50754,50589
50751,50591
50745,50594
50740,50597
50740,50594
50743,50584
50744,50577
50744,50576
50744,50576
50746,50568
50747,50565
50749,50550
50749,50546
50750,50541
50750,50538
50752,50519
50752,50517
50753,50515
50753,50511
50755,50488
50755,50487
50755,50486
50755,50482
50757,50453
50757,50453
50757,50453
50757,50450
50758,50415
50758,50415
50758,50412
50759,50371
50759,50370
50759,50369
50760,50320
50760,50320
50760,50319
50761,50262
50761,50262
50761,50261
50762,50196
50762,50196
50762,50196
50762,50148
50802,50192
50812,50201
50821,50211
50823,50213
50908,50288
50919,50296
50930,50305
50933,50307
51025,50369
51038,50376
51050,50384
51053,50385
51151,50435
51165,50440
51178,50446
51181,50447
51286,50484
51300,50487
51313,50492
51316,50493
51429,50517
51435,50518
51442,50519
51445,50520
51446,50520
51452,50520
51458,50521
51461,50522
51483,50524
51486,50524
51490,50524
51494,50524
51526,50526
51527,50526
51528,50526
51532,50526
51573,50527
51573,50527
51573,50527
51577,50527
51622,50527
51622,50527
51622,50527
51626,50527
51673,50527
51673,50527
51676,50527
51709,50526
51709,50526
51712,50526
51762,50524
51763,50524
51764,50524
51768,50524
51807,50522
51810,50521
51814,50521
51817,50521
51850,50518
51855,50517
51860,50517
51863,50516
51892,50512
51897,50511
51902,50510
51905,50510
51933,50504
51935,50503
51936,50503
51940,50502
51971,50495
51971,50495
51972,50495
51976,50494
52008,50485
52011,50484
52014,50484
52017,50483
52046,50474
52050,50472
52054,50471
52058,50470
52086,50460
52090,50458
52094,50457
52097,50456
52128,50443
52130,50442
52133,50441
52136,50440
52172,50424
52173,50423
52174,50423
52177,50421
52220,50401
52220,50401
52222,50400
52275,50374
52275,50374
52276,50373
52330,50347
52334,50350
52348,50362
52351,50364
52421,50411
52437,50420
52453,50429
52456,50431
52534,50468
52551,50473
52566,50480
52570,50481
52657,50506
52671,50509
52684,50513
52688,50513
52723,50519
52732,50520
52740,50521
52744,50522
52795,50526
52801,50526
52807,50526
52811,50526
52866,50527
52871,50527
52876,50527
52880,50527
52935,50525
52941,50524
52947,50524
52951,50524
53001,50519
53011,50517
53021,50516
53024,50516
53065,50508
53076,50504
53087,50502
53091,50501
53111,50495
53119,50492
53127,50490
53130,50488
53154,50479
53157,50481
53158,50481
53159,50482
53182,50489
53204,50496
53205,50496
53206,50496
53230,50499
53253,50501
53255,50501
53255,50501
53255,50501
53257,50501
53525,50501
53525,50501
53525,50501
53532,50501
53532,50501
53532,50501
53592,50501
53592,50501
53593,50501
53648,50501
53648,50501
53648,50501
53697,50501
53697,50501
53698,50501
53738,50500
53738,50500
53740,50500
53771,50500
53771,50500
53771,50500
53775,50499
53794,50499
53801,50498
53802,50498
53803,50498
53809,50498
53813,50497
53820,50497
53835,50493
53851,50491
53859,50488
53868,50487
53882,50480
53897,50475
53905,50471
53913,50467
53926,50459
53940,50451
53946,50445
53954,50440
53965,50429
53977,50418
53982,50411
53988,50405
53997,50392
54006,50379
54010,50371
54015,50364
54021,50349
54022,50347
54037,50360
54051,50370
54065,50380
54068,50382
54142,50429
54158,50437
54173,50445
54176,50447
54257,50481
54274,50486
54291,50493
54294,50494
54380,50515
54388,50516
54396,50519
54400,50519
54401,50519
54408,50520
54415,50521
54418,50522
54481,50528
54492,50528
54504,50529
54508,50529
54577,50528
54586,50527
54596,50527
54599,50527
54669,50520
54679,50518
54688,50517
54692,50516
54758,50503
54770,50500
54783,50497
54786,50496
54844,50478
54846,50477
54854,50480
54862,50484
54877,50487
54892,50492
54901,50493
54910,50495
54925,50496
54941,50498
54944,50498
55491,50502
55509,50500
55526,50499
55533,50498
55540,50497
55557,50492
55574,50488
55581,50485
55587,50483
55603,50475
55619,50468
55625,50464
55631,50460
55645,50450
55659,50439
55664,50434
55669,50430
55681,50416
55693,50404
55696,50397
55701,50392
55709,50377
55719,50362
55721,50355
55725,50349
55730,50332
55736,50316
55737,50309
55740,50302
55741,50285
55744,50267
55744,50260
55745,50253
55744,50236
55743,50218
55741,50211
55741,50204
55736,50187
55732,50170
55729,50164
55727,50157
55719,50141
55712,50125
55710,50122
55692,50090
55691,50090
55691,50089
55691,50088
55689,50071
55688,50045
55687,50012
55686,49971
55685,49922
55684,49865
55683,49799
55683,49723
55682,49636
55682,49539
55681,49430
55681,49309
55681,49309
55681,49175
55681,49175
55680,49027
55680,49027
55676,47938
55674,47916
55672,47893
55672,47891
55672,47889
55665,47868
55659,47846
55658,47844
55657,47842
55647,47822
55636,47802
55635,47801
55634,47799
55620,47781
55606,47764
55604,47762
55603,47761
55585,47746
55568,47732
55566,47731
55565,47729
55545,47719
55525,47708
55523,47707
55521,47706
55500,47700
55479,47693
55476,47692
55474,47692
55452,47690
55430,47687
55426,47687
55142,47685
55142,47685
55142,47685
55121,47685
55121,47685
55121,47685
55060,47685
55060,47685
55059,47685
55004,47685
55004,47685
55003,47685
54954,47685
54954,47685
54953,47685
54912,47685
54912,47685
54910,47685
54879,47685
54879,47686
54879,47686
54875,47686
54855,47686
54847,47687
54838,47687
54835,47688
54828,47689
54825,47689
54822,47689
54810,47692
54807,47693
54803,47694
54801,47694
54780,47699
54777,47700
54774,47701
54755,47710
54735,47718
54732,47720
54730,47721
54712,47734
54694,47746
54692,47748
54690,47750
54675,47766
54660,47781
54658,47784
54656,47786
54645,47804
54633,47823
54632,47825
54630,47828
54623,47848
54615,47868
54614,47871
54613,47874
54610,47895
54606,47917
54606,47919
54605,47922
54606,47944
54606,47966
54607,47969
54607,47972
54612,47993
54616,48014
54617,48015
54617,48015
54617,48017
54618,48019
54619,48023
54620,48025
54628,48043
54636,48061
54637,48064
54644,48076
54647,48080
54649,48085
54651,48088
54658,48098
54659,48117
54660,48150
54661,48194
54662,48250
54662,48318
54662,48372
54634,48369
54628,48369
54621,48368
54617,48368
54558,48366
54552,48366
54546,48366
54542,48366
54483,48368
54476,48369
54469,48368
54466,48369
54411,48374
54401,48376
54390,48377
54387,48378
54342,48387
54329,48390
54316,48393
54312,48394
54266,48409
54253,48415
54239,48420
54236,48421
54159,48458
54144,48467
54128,48475
54125,48477
54054,48526
54041,48537
54027,48547
54024,48549
53960,48609
53949,48621
53937,48633
53935,48635
53879,48705
53870,48718
53861,48730
53843,48700
53831,48683
53820,48667
53818,48664
53770,48607
53755,48593
53740,48577
53738,48575
53680,48528
53663,48517
53647,48505
53644,48503
53576,48465
53560,48458
53545,48450
53542,48449
53463,48419
53449,48415
53436,48410
53432,48409
53343,48388
53332,48386
53321,48384
53317,48383
53216,48370
53211,48369
53205,48368
53202,48368
53166,48365
53163,48366
53159,48365
53156,48365
53096,48363
53090,48363
53084,48363
53080,48363
53021,48365
53015,48365
53009,48365
53005,48366
52944,48371
52938,48372
52933,48373
52929,48373
52863,48383
52859,48384
52855,48385
52852,48385
52778,48400
52776,48401
52773,48401
52770,48402
52685,48421
52685,48421
52683,48422
52664,48427
52616,48438
52571,48448
52532,48457
52503,48463
52487,48466
52440,48474
52436,48475
52433,48475
52417,48480
52491,48372
52498,48360
52505,48349
52509,48339
52515,48329
52519,48316
52524,48304
52526,48293
52530,48283
52531,48269
52534,48256
52534,48245
52535,48234
52534,48220
52534,48206
52532,48196
52531,48185
52527,48172
52525,48158
52521,48148
52518,48137
52511,48125
52506,48113
52500,48103
52495,48094
52487,48083
52479,48071
52472,48064
52465,48055
52454,48046
52445,48036
52436,48030
52427,48023
52415,48016
52404,48009
52394,48004
52385,47999
52372,47995
52359,47989
52356,47988
52335,47982
52330,47980
52309,47971
52280,47957
52247,47941
52233,47934
52231,47933
52229,47932
52226,47931
52140,47891
52135,47889
52129,47886
52126,47885
52047,47854
52039,47852
52031,47848
52028,47847
51952,47825
51943,47823
51933,47820
51930,47819
51855,47804
51846,47803
51836,47801
51833,47800
51756,47792
51748,47792
51740,47791
51736,47791
51654,47788
51649,47788
51644,47788
51640,47788
51583,47789
51576,47790
51569,47790
51566,47790
51470,47799
51458,47801
51447,47802
51443,47803
51354,47821
51342,47824
51330,47827
51326,47828
51241,47855
51230,47860
51219,47864
51216,47865
51130,47903
51120,47908
51110,47913
51107,47915
51022,47963
51013,47970
51002,47976
50999,47978
50909,48044
50900,48052
50890,48059
50888,48061
50803,48137
50796,48146
50787,48154
50785,48156
50765,48178
50765,48138
50765,48138
50765,48138
50764,48065
50764,48065
50764,48064
50764,47999
50764,47999
50764,47999
50763,47942
50763,47942
50763,47941
50763,47893
50763,47893
50762,47891
50761,47850
50761,47849
50761,47847
50760,47812
50760,47812
50760,47812
50760,47808
50759,47780
50758,47779
50759,47778
50758,47774
50757,47751
50756,47748
50756,47746
50756,47743
50754,47724
50753,47720
50753,47716
50752,47712
50750,47697
50748,47690
50748,47683
50747,47679
50744,47668
50740,47656
50738,47644
50736,47641
50734,47633
50730,47625
50729,47622
50727,47618
50725,47615
50718,47597
50716,47594
50713,47588
50712,47586
50711,47584
50703,47573
50702,47572
50700,47569
50698,47566
50685,47548
50683,47546
50682,47544
50680,47542
50676,47538
50674,47536
50672,47534
50656,47519
50653,47517
50650,47513
50649,47513
50640,47505
50637,47503
50635,47501
50632,47499
50628,47497
50613,47488
50598,47479
50595,47477
50591,47475
50589,47475
50588,47474
50587,47474
50586,47473
50583,47471
50578,47469
50573,47468
50559,47461
50556,47460
50533,47452
50533,47451
50533,47451
50509,47445
50486,47439
50485,47439
50485,47439
50482,47439
50462,47436
50432,47395
50416,47378
50400,47360
50399,47359
50399,47359
50399,47359
50398,47358
50353,47318
50334,47304
50315,47290
50313,47289
50313,47289
50313,47289
50312,47288
50262,47259
50241,47249
50221,47239
50218,47238
50218,47238
50218,47238
50217,47238
50164,47220
50142,47214
50120,47209
50117,47208
50061,47200
50039,47199
50017,47198
50013,47198
49957,47201
49935,47204
49913,47207
49909,47208
49855,47221
49833,47229
49812,47236
49809,47237
49756,47262
49737,47273
49716,47285
49714,47287
49714,47287
49714,47287
49714,47287
49666,47322
49649,47337
49631,47353
49629,47355
49629,47355
49629,47355
49629,47356
49587,47401
49573,47420
49563,47433
48603,47433
48539,47433
48401,47433
48401,47433
48277,47433
48277,47433
48277,47433
48165,47433
48165,47433
48165,47433
48065,47433
48065,47433
48065,47433
47976,47433
47976,47433
47976,47433
47898,47434
47898,47434
47897,47434
47829,47434
47829,47434
47828,47434
47769,47435
47769,47435
47768,47435
47717,47436
47717,47436
47715,47436
47673,47437
47673,47437
47670,47437
47634,47438
47634,47438
47633,47438
47630,47438
47601,47440
47599,47440
47598,47440
47594,47440
47571,47442
47568,47443
47564,47443
47561,47443
47542,47445
47537,47446
47531,47447
47527,47447
47513,47450
47503,47453
47493,47454
47490,47455
47479,47458
47468,47463
47466,47463
47465,47464
47463,47465
47447,47470
47444,47471
47436,47475
47435,47475
47434,47475
47419,47485
47417,47485
47413,47488
47394,47499
47393,47500
47392,47500
47389,47503
47384,47506
47380,47510
47376,47513
47362,47526
47348,47540
47345,47544
47341,47547
47339,47550
47336,47554
47326,47569
47323,47572
47321,47576
47319,47579
47318,47581
47311,47592
47309,47595
47306,47600
47303,47607
47300,47613
47300,47613
47300,47613
47299,47615
47298,47618
47297,47620
47296,47622
47296,47623
47296,47623
47295,47624
47293,47630
47291,47635
47290,47638
47287,47643
47286,47646
47285,47650
47284,47655
47282,47659
47281,47664
47280,47668
47279,47672
47276,47682
47276,47685
47274,47691
47274,47696
47274,47698
47274,47700
47272,47706
47272,47709
47271,47719
47271,47722
47270,47725
47270,47729
47269,47742
47269,47743
47269,47744
47268,47748
47267,47765
47267,47766
47267,47766
47267,47769
47266,47792
47266,47792
47266,47794
47266,47822
47266,47822
47266,47824
47265,47858
47265,47858
47265,47859
47264,47900
47264,47900
47264,47901
47264,47949
47264,47949
47264,47949
47263,48005
47263,48005
47263,48006
47263,48070
47263,48070
47263,48070
47263,48143
47263,48144
47263,48144
47262,48227
47262,48227
47262,48227
47262,48320
47262,48320
47262,48320
47262,48424
47262,48424
47262,48424
47262,48539
47262,48539
47262,48539
47262,48666
47262,48666
47262,48666
47262,48806
47262,48806
47262,48806
47262,48958
47262,48958
47262,48958
47262,49125
47262,49125
47262,49158
47262,49322
47262,49322
47262,49473
47262,49473
47262,49611
44686,49611
44744,49524
44808,49371
44840,49208
44840,49043
44808,48880
44744,48727
44652,48590
44535,48473
44398,48381
44245,48317
44082,48285
43917,48285
43754,48317
43601,48381
43464,48473
43347,48590
43287,48679
42572,48679
42572,47744
43483,47744
43544,47868
43692,47944
43851,47988
44016,48001
44181,47982
44338,47931
44455,47868
44516,47744
44000,47228
43483,47744
42572,47744
42572,47174
43155,47174
43175,47338
43226,47496
43288,47612
43412,47674
43929,47157
44070,47157
44587,47674
44711,47612
44786,47465
44831,47305
44844,47140
44824,46976
44773,46818
44711,46702
44587,46640
44070,47157
43929,47157
43412,46640
43288,46702
43213,46849
43168,47009
43155,47174
42572,47174
42572,46570
43483,46570
44000,47086
44516,46570
44455,46445
44307,46370
44148,46325
43983,46313
43818,46332
43661,46383
43544,46445
43483,46570
42572,46570
42572,43118
43483,43118
43544,43242
43692,43318
43851,43363
44016,43375
44181,43356
44338,43305
44455,43242
44516,43118
44000,42602
43483,43118
42572,43118
42572,42548
43155,42548
43175,42712
43226,42870
43288,42986
43412,43048
43929,42531
44070,42531
44587,43048
44711,42986
44786,42839
44831,42679
44844,42514
44824,42350
44773,42192
44711,42076
44587,42014
44070,42531
43929,42531
43412,42014
43288,42076
43213,42223
43168,42383
43155,42548
42572,42548
42572,41944
43483,41944
44000,42460
44516,41944
44455,41819
44307,41744
44148,41699
43983,41687
43818,41706
43661,41757
43544,41819
43483,41944
42572,41944
42572,39181
43483,39181
43544,39305
43692,39381
43851,39426
44016,39438
44181,39419
44338,39368
44455,39305
44516,39181
44000,38665
43483,39181
42572,39181
42572,38611
43155,38611
43175,38775
43226,38933
43288,39049
43412,39111
43929,38594
44070,38594
44587,39111
44711,39049
44786,38902
44831,38742
44844,38577
44824,38413
44773,38255
44711,38139
44587,38077
44070,38594
43929,38594
43412,38077
43288,38139
43213,38286
43168,38446
43155,38611
42572,38611
42572,38007
43483,38007
44000,38523
44516,38007
44455,37882
44307,37807
44148,37762
43983,37750
43818,37769
43661,37820
43544,37882
43483,38007
42572,38007
42572,37072
43287,37072
43347,37161
43464,37278
43601,37370
43754,37434
43917,37466
44082,37466
44245,37434
44398,37370
44535,37278
44652,37161
44744,37024
44808,36871
44840,36708
44840,36543
44819,36438
45311,35946
53669,35946
53589,36000
53500,36089
53429,36195
53381,36312
53356,36436
53356,36563
53381,36687
53429,36804
53500,36910
53589,36999
53695,37070
53812,37118
53936,37143
54063,37143
54187,37118
54304,37070
54410,36999
54463,36946
60153,36946
60184,36972
60236,37000
60184,37027
60098,37098
60027,37184
59975,37282
59943,37389
59932,37500
59943,37610
59975,37717
60027,37815
60098,37901
60184,37972
60236,38000
60184,38027
60153,38053
46084,38053
46062,38050
46041,38053
45975,38059
45891,38085
45813,38126
45745,38182
45731,38199
44187,39743
44082,39722
43917,39722
43754,39754
43601,39818
43464,39910
43347,40027
43255,40164
43191,40317
43159,40480
43159,40645
43191,40808
43255,40961
43347,41098
43464,41215
43601,41307
43754,41371
43917,41403
44082,41403
44245,41371
44398,41307
44535,41215
44652,41098
44744,40961
44808,40808
44840,40645
44840,40480
44819,40375
46248,38946
51669,38946
51589,39000
51500,39089
51429,39195
51381,39312
51356,39436
51356,39563
51381,39687
51429,39804
51500,39910
51589,39999
51695,40070
51812,40118
51936,40143
52063,40143
52187,40118
52304,40070
52410,39999
52463,39946
60153,39946
60184,39972
60236,40000
60184,40027
60098,40098
60027,40184
59975,40282
59943,40389
59932,40500
59943,40610
59975,40717
60027,40815
60098,40901
60184,40972
60236,41000
60184,41027
60153,41053
51021,41053
50999,41050
50978,41053
50978,41053
50912,41059
50828,41085
50750,41126
50682,41182
50668,41199
47814,44053
44841,44053
44841,43909
44836,43860
44822,43813
44799,43769
44768,43731
44730,43700
44686,43677
44639,43663
44590,43658
43409,43658
43360,43663
43313,43677
43269,43700
43231,43731
43200,43769
43177,43813
43163,43860
43158,43909
43158,45090
43163,45139
43177,45186
43200,45230
43231,45268
43269,45299
43313,45322
43360,45336
43409,45341
44590,45341
44639,45336
44686,45322
44730,45299
44768,45268
44799,45230
44822,45186
44836,45139
44841,45090
44841,44946
47978,44946
48000,44949
48021,44946
48021,44946
48087,44940
48171,44914
48249,44873
48317,44817
48331,44800
51185,41946
60153,41946
60184,41972
60236,42000
60184,42027
60098,42098
60027,42184
59975,42282
59943,42389
59932,42500
59943,42610
59975,42717
60027,42815
60098,42901
60184,42972
60236,43000
60184,43027
60098,43098
60027,43184
59975,43282
59943,43389
59932,43500
59943,43610
59975,43717
60027,43815
60098,43901
60184,43972
60236,44000
60184,44027
60098,44098
60027,44184
59975,44282
59943,44389
59932,44500
59943,44610
59975,44717
60027,44815
60098,44901
60143,44937
60136,44938
60088,44952
60045,44976
60007,45007
59976,45045
59952,45088
59938,45136
59933,45185
59933,45814
59938,45863
59952,45911
59976,45954
60007,45992
60045,46023
60088,46047
60136,46061
60185,46066
60814,46066
60863,46061
60911,46047
60954,46023
60992,45992
61023,45954
61047,45911
61053,45890
61053,47814
52314,56553
44841,56553
44841,56409
44836,56360
44822,56313
44799,56269
44768,56231
44730,56200
44686,56177
44639,56163
44590,56158
43409,56158
43360,56163
43313,56177
43269,56200
43231,56231
43200,56269
43177,56313
43163,56360
43158,56409
43158,57590
43163,57639
43177,57686
43200,57730
43231,57768
43269,57799
43313,57822
43360,57836
43409,57841
44590,57841
44639,57836
44686,57822
44730,57799
44768,57768
44799,57730
44822,57686
44836,57639
44841,57590
44841,57446
52478,57446
52500,57449
52521,57446
52521,57446
52587,57440
52671,57414
52749,57373
52817,57317
52831,57300
61800,48331
61817,48317
61873,48249
61914,48171
61940,48087
61941,48071
61949,48000
61946,47978
61946,41021
61949,40999
61946,40978
61946,40978
61940,40912
61914,40828
61873,40750
61817,40682
61800,40668
61331,40199
61317,40182
61249,40126
61171,40085
61087,40059
61021,40053
61021,40053
61000,40050
60978,40053
60846,40053
60815,40027
60763,40000
60815,39972
60901,39901
60972,39815
61024,39717
61056,39610
61067,39500
61056,39389
61024,39282
60972,39184
60901,39098
60815,39027
60763,39000
60815,38972
60901,38901
60972,38815
61024,38717
61056,38610
61067,38500
61056,38389
61024,38282
60972,38184
60901,38098
60815,38027
60763,38000
60815,37972
60846,37946
61314,37946
62553,39185
62553,49314
53814,58053
42685,58053
42446,57814
42446,55618
43483,55618
43544,55742
43692,55818
43851,55863
44016,55875
44181,55856
44338,55805
44455,55742
44516,55618
44000,55102
43483,55618
42446,55618
42446,55248
42646,55048
43155,55048
43175,55212
43226,55370
43288,55486
43412,55548
43929,55031
44070,55031
44587,55548
44711,55486
44786,55339
44831,55179
44844,55014
44824,54850
44773,54692
44711,54576
44587,54514
44070,55031
43929,55031
43412,54514
43288,54576
43213,54723
43168,54883
43155,55048
42646,55048
43250,54444
43483,54444
44000,54960
44516,54444
44455,54319
44307,54244
44148,54199
43983,54187
43818,54206
43661,54257
43544,54319
43483,54444
43250,54444
43812,53882
43917,53903
44082,53903
44245,53871
44398,53807
44535,53715
44652,53598
44744,53461
44808,53308
44840,53145
44840,52980
44808,52817
44744,52664
44652,52527
44535,52410
44398,52318
44245,52254
44082,52222
43917,52222
43754,52254
43601,52318
43464,52410
43347,52527
43255,52664
43191,52817
43159,52980
43159,53145
43180,53250
41699,54731
41682,54745
41626,54813
41589,54883
41585,54891
41559,54975
41550,55062
40269,55062
40269,51681
43483,51681
43544,51805
43692,51881
43851,51926
44016,51938
44181,51919
44338,51868
44455,51805
44516,51681
44000,51165
43483,51681
40269,51681
40269,51111
43155,51111
43175,51275
43226,51433
43288,51549
43412,51611
43929,51094
44070,51094
44587,51611
44711,51549
44786,51402
44831,51242
44844,51077
44824,50913
44773,50755
44711,50639
44587,50577
44070,51094
43929,51094
43412,50577
43288,50639
43213,50786
43168,50946
43155,51111
40269,51111
40269,50507
43483,50507
44000,51023
44516,50507
44455,50382
44307,50307
44148,50262
43983,50250
43818,50269
43661,50320
43544,50382
43483,50507
40269,50507
40269,22244
43483,22244
43544,22368
43692,22444
43851,22488
44016,22501
44181,22482
44338,22431
44455,22368
44516,22244
44000,21728
43483,22244
40269,22244
40269,21674
43155,21674
43175,21838
43226,21996
43288,22112
43412,22174
43929,21657
44070,21657
44587,22174
44711,22112
44786,21965
44831,21805
44844,21640
44824,21476
44773,21318
44711,21202
44587,21140
44070,21657
43929,21657
43412,21140
43288,21202
43213,21349
43168,21509
43155,21674
40269,21674
40269,21070
43483,21070
44000,21586
44516,21070
44455,20945
44307,20870
44148,20825
43983,20813
43818,20832
43661,20883
43544,20945
43483,21070
40269,21070
40269,19791
55849,19791
55849,23303
69150,23303
69150,19791
55849,19791
40269,19791
40269,18769
69730,18769
69730,59230
Z" /> 
</g>
</g> 
</svg>
