<?xml version="1.0" standalone="no"?>
 <!DOCTYPE svg PUBLIC "-//W3C//DTD SVG 1.1//EN" 
 "http://www.w3.org/Graphics/SVG/1.1/DTD/svg11.dtd"> 
<svg xmlns="http://www.w3.org/2000/svg" version="1.1" 
    width="29.7002cm" height="21.0007cm" viewBox="0 0 116930 82680 ">
<title>SVG Picture created as CNC REVERSA-B_SilkS.svg date 2019/11/12 17:44:12 </title>
  <desc>Picture generated by PCBNEW </desc>
<g style="fill:#000000; fill-opacity:1;stroke:#000000; stroke-opacity:1;
stroke-linecap:round; stroke-linejoin:round; "
 transform="translate(0 0) scale(1 1)">
</g>
<g style="fill:#000000; fill-opacity:0.0; 
stroke:#000000; stroke-width:-0.000393701; stroke-opacity:1; 
stroke-linecap:round; stroke-linejoin:round;">
</g>
<g style="fill:#000000; fill-opacity:0.0; 
stroke:#000000; stroke-width:59.0551; stroke-opacity:1; 
stroke-linecap:round; stroke-linejoin:round;">
<path d="M48806 44678
L48806 44284
L48656 44284
L48618 44303
L48599 44321
L48581 44359
L48581 44415
L48599 44453
L48618 44471
L48656 44490
L48806 44490
" />
<path d="M48412 44284
L48412 44603
L48393 44640
L48374 44659
L48337 44678
L48262 44678
L48224 44659
L48206 44640
L48187 44603
L48187 44284
" />
<path d="M47812 44678
L48000 44678
L48000 44284
" />
<path d="M47418 44284
L47156 44678
" />
<path d="M47156 44284
L47418 44678
" />
<path d="M54784 34078
L55065 34078
L55121 34059
L55159 34022
L55178 33965
L55178 33928
" />
<path d="M54784 34265
L55103 34265
L55140 34284
L55159 34303
L55178 34340
L55178 34415
L55159 34453
L55140 34472
L55103 34490
L54784 34490
" />
<path d="M55178 34678
L54784 34678
L55065 34809
L54784 34940
L55178 34940
" />
<path d="M55178 35128
L54784 35128
L54784 35278
L54803 35315
L54821 35334
L54859 35353
L54915 35353
L54953 35334
L54971 35315
L54990 35278
L54990 35128
" />
<path d="M54971 35521
L54971 35653
" />
<path d="M55178 35709
L55178 35521
L54784 35521
L54784 35709
" />
<path d="M55178 36103
L54990 35971
" />
<path d="M55178 35878
L54784 35878
L54784 36028
L54803 36065
L54821 36084
L54859 36103
L54915 36103
L54953 36084
L54971 36065
L54990 36028
L54990 35878
" />
<path d="M55178 36571
L54784 36571
L54784 36665
L54803 36721
L54840 36759
L54878 36778
L54953 36796
L55009 36796
L55084 36778
L55121 36759
L55159 36721
L55178 36665
L55178 36571
" />
<path d="M55178 36965
L54784 36965
" />
<path d="M55178 37377
L54990 37246
" />
<path d="M55178 37152
L54784 37152
L54784 37302
L54803 37340
L54821 37359
L54859 37377
L54915 37377
L54953 37359
L54971 37340
L54990 37302
L54990 37152
" />
<path d="M54784 37809
L54784 38071
L55178 37809
L55178 38071
" />
<path d="M52284 34853
L52565 34853
L52621 34834
L52659 34797
L52678 34740
L52678 34703
" />
<path d="M52284 35040
L52603 35040
L52640 35059
L52659 35078
L52678 35115
L52678 35190
L52659 35228
L52640 35247
L52603 35265
L52284 35265
" />
<path d="M52678 35453
L52284 35453
L52565 35584
L52284 35715
L52678 35715
" />
<path d="M52678 35903
L52284 35903
L52284 36053
L52303 36090
L52321 36109
L52359 36128
L52415 36128
L52453 36109
L52471 36090
L52490 36053
L52490 35903
" />
<path d="M52471 36296
L52471 36428
" />
<path d="M52678 36484
L52678 36296
L52284 36296
L52284 36484
" />
<path d="M52678 36878
L52490 36746
" />
<path d="M52678 36653
L52284 36653
L52284 36803
L52303 36840
L52321 36859
L52359 36878
L52415 36878
L52453 36859
L52471 36840
L52490 36803
L52490 36653
" />
<path d="M52659 37328
L52678 37384
L52678 37478
L52659 37515
L52640 37534
L52603 37553
L52565 37553
L52528 37534
L52509 37515
L52490 37478
L52471 37403
L52453 37365
L52434 37346
L52396 37328
L52359 37328
L52321 37346
L52303 37365
L52284 37403
L52284 37496
L52303 37553
" />
<path d="M52284 37665
L52284 37890
" />
<path d="M52678 37778
L52284 37778
" />
<path d="M52471 38021
L52471 38152
" />
<path d="M52678 38209
L52678 38021
L52284 38021
L52284 38209
" />
<path d="M52678 38377
L52284 38377
L52284 38527
L52303 38565
L52321 38584
L52359 38602
L52415 38602
L52453 38584
L52471 38565
L52490 38527
L52490 38377
" />
<path d="M52284 39034
L52284 39296
L52678 39034
L52678 39296
" />
<path d="M48787 57178
L48787 56784
L48637 56784
L48599 56803
L48581 56821
L48562 56859
L48562 56915
L48581 56953
L48599 56971
L48637 56990
L48787 56990
" />
<path d="M48393 56784
L48393 57103
L48374 57140
L48356 57159
L48318 57178
L48243 57178
L48206 57159
L48187 57140
L48168 57103
L48168 56784
" />
<path d="M47793 57178
L47981 57178
L47981 56784
" />
<path d="M47287 56990
L47287 57178
" />
<path d="M47418 56784
L47287 56990
L47156 56784
" />
<path d="M48212 53178
L48212 52784
L48118 52784
L48062 52803
L48024 52840
L48006 52878
L47987 52953
L47987 53009
L48006 53084
L48024 53121
L48062 53159
L48118 53178
L48212 53178
" />
<path d="M47818 53178
L47818 52784
" />
<path d="M47406 53178
L47537 52990
" />
<path d="M47631 53178
L47631 52784
L47481 52784
L47443 52803
L47425 52821
L47406 52859
L47406 52915
L47425 52953
L47443 52971
L47481 52990
L47631 52990
" />
<path d="M46862 52990
L46862 53178
" />
<path d="M46993 52784
L46862 52990
L46731 52784
" />
<path d="M48778 48971
L48646 48971
" />
<path d="M48590 49178
L48778 49178
L48778 48784
L48590 48784
" />
<path d="M48421 49178
L48421 48784
L48196 49178
L48196 48784
" />
<path d="M48028 49065
L47840 49065
" />
<path d="M48065 49178
L47934 48784
L47803 49178
" />
<path d="M47296 48990
L47296 49178
" />
<path d="M47428 48784
L47296 48990
L47165 48784
" />
<path d="M48231 40678
L48231 40284
L48137 40284
L48081 40303
L48043 40340
L48024 40378
L48006 40453
L48006 40509
L48024 40584
L48043 40621
L48081 40659
L48137 40678
L48231 40678
" />
<path d="M47837 40678
L47837 40284
" />
<path d="M47425 40678
L47556 40490
" />
<path d="M47649 40678
L47649 40284
L47500 40284
L47462 40303
L47443 40321
L47425 40359
L47425 40415
L47443 40453
L47462 40471
L47500 40490
L47649 40490
" />
<path d="M46993 40284
L46731 40678
" />
<path d="M46731 40284
L46993 40678
" />
<path d="M48796 36471
L48665 36471
" />
<path d="M48609 36678
L48796 36678
L48796 36284
L48609 36284
" />
<path d="M48440 36678
L48440 36284
L48215 36678
L48215 36284
" />
<path d="M48046 36565
L47859 36565
" />
<path d="M48084 36678
L47953 36284
L47821 36678
" />
<path d="M47428 36284
L47165 36678
" />
<path d="M47165 36284
L47428 36678
" />
<path d="M48806 32178
L48806 31784
L48656 31784
L48618 31803
L48599 31821
L48581 31859
L48581 31915
L48599 31953
L48618 31971
L48656 31990
L48806 31990
" />
<path d="M48412 31784
L48412 32103
L48393 32140
L48374 32159
L48337 32178
L48262 32178
L48224 32159
L48206 32140
L48187 32103
L48187 31784
" />
<path d="M47812 32178
L48000 32178
L48000 31784
" />
<path d="M47418 31784
L47156 31784
L47418 32178
L47156 32178
" />
<path d="M48231 27678
L48231 27284
L48137 27284
L48081 27303
L48043 27340
L48024 27378
L48006 27453
L48006 27509
L48024 27584
L48043 27621
L48081 27659
L48137 27678
L48231 27678
" />
<path d="M47837 27678
L47837 27284
" />
<path d="M47425 27678
L47556 27490
" />
<path d="M47649 27678
L47649 27284
L47500 27284
L47462 27303
L47443 27321
L47425 27359
L47425 27415
L47443 27453
L47462 27471
L47500 27490
L47649 27490
" />
<path d="M46993 27284
L46731 27284
L46993 27678
L46731 27678
" />
<path d="M48796 23471
L48665 23471
" />
<path d="M48609 23678
L48796 23678
L48796 23284
L48609 23284
" />
<path d="M48440 23678
L48440 23284
L48215 23678
L48215 23284
" />
<path d="M48046 23565
L47859 23565
" />
<path d="M48084 23678
L47953 23284
L47821 23678
" />
<path d="M47428 23284
L47165 23284
L47428 23678
L47165 23678
" />
<path d="M49981 54803
L50018 54784
L50074 54784
L50131 54803
L50168 54840
L50187 54878
L50206 54953
L50206 55009
L50187 55084
L50168 55121
L50131 55159
L50074 55178
L50037 55178
L49981 55159
L49962 55140
L49962 55009
L50037 55009
" />
<path d="M49793 55178
L49793 54784
L49568 55178
L49568 54784
" />
<path d="M49381 55178
L49381 54784
L49287 54784
L49231 54803
L49193 54840
L49174 54878
L49156 54953
L49156 55009
L49174 55084
L49193 55121
L49231 55159
L49287 55178
L49381 55178
" />
<path d="M48687 55178
L48687 54784
L48593 54784
L48537 54803
L48500 54840
L48481 54878
L48462 54953
L48462 55009
L48481 55084
L48500 55121
L48537 55159
L48593 55178
L48687 55178
" />
<path d="M48068 55178
L48200 54990
" />
<path d="M48293 55178
L48293 54784
L48143 54784
L48106 54803
L48087 54821
L48068 54859
L48068 54915
L48087 54953
L48106 54971
L48143 54990
L48293 54990
" />
<path d="M47900 55178
L47900 54784
" />
<path d="M47768 54784
L47637 55178
L47506 54784
" />
<path d="M47375 54971
L47243 54971
" />
<path d="M47187 55178
L47375 55178
L47375 54784
L47187 54784
" />
<path d="M46793 55178
L46925 54990
" />
<path d="M47018 55178
L47018 54784
L46868 54784
L46831 54803
L46812 54821
L46793 54859
L46793 54915
L46812 54953
L46831 54971
L46868 54990
L47018 54990
" />
<path d="M49981 50803
L50018 50784
L50074 50784
L50131 50803
L50168 50840
L50187 50878
L50206 50953
L50206 51009
L50187 51084
L50168 51121
L50131 51159
L50074 51178
L50037 51178
L49981 51159
L49962 51140
L49962 51009
L50037 51009
" />
<path d="M49793 51178
L49793 50784
L49568 51178
L49568 50784
" />
<path d="M49381 51178
L49381 50784
L49287 50784
L49231 50803
L49193 50840
L49174 50878
L49156 50953
L49156 51009
L49174 51084
L49193 51121
L49231 51159
L49287 51178
L49381 51178
" />
<path d="M48687 51178
L48687 50784
L48593 50784
L48537 50803
L48500 50840
L48481 50878
L48462 50953
L48462 51009
L48481 51084
L48500 51121
L48537 51159
L48593 51178
L48687 51178
" />
<path d="M48068 51178
L48200 50990
" />
<path d="M48293 51178
L48293 50784
L48143 50784
L48106 50803
L48087 50821
L48068 50859
L48068 50915
L48087 50953
L48106 50971
L48143 50990
L48293 50990
" />
<path d="M47900 51178
L47900 50784
" />
<path d="M47768 50784
L47637 51178
L47506 50784
" />
<path d="M47375 50971
L47243 50971
" />
<path d="M47187 51178
L47375 51178
L47375 50784
L47187 50784
" />
<path d="M46793 51178
L46925 50990
" />
<path d="M47018 51178
L47018 50784
L46868 50784
L46831 50803
L46812 50821
L46793 50859
L46793 50915
L46812 50953
L46831 50971
L46868 50990
L47018 50990
" />
<path d="M49981 46803
L50018 46784
L50074 46784
L50131 46803
L50168 46840
L50187 46878
L50206 46953
L50206 47009
L50187 47084
L50168 47121
L50131 47159
L50074 47178
L50037 47178
L49981 47159
L49962 47140
L49962 47009
L50037 47009
" />
<path d="M49793 47178
L49793 46784
L49568 47178
L49568 46784
" />
<path d="M49381 47178
L49381 46784
L49287 46784
L49231 46803
L49193 46840
L49174 46878
L49156 46953
L49156 47009
L49174 47084
L49193 47121
L49231 47159
L49287 47178
L49381 47178
" />
<path d="M48687 47178
L48687 46784
L48593 46784
L48537 46803
L48500 46840
L48481 46878
L48462 46953
L48462 47009
L48481 47084
L48500 47121
L48537 47159
L48593 47178
L48687 47178
" />
<path d="M48068 47178
L48200 46990
" />
<path d="M48293 47178
L48293 46784
L48143 46784
L48106 46803
L48087 46821
L48068 46859
L48068 46915
L48087 46953
L48106 46971
L48143 46990
L48293 46990
" />
<path d="M47900 47178
L47900 46784
" />
<path d="M47768 46784
L47637 47178
L47506 46784
" />
<path d="M47375 46971
L47243 46971
" />
<path d="M47187 47178
L47375 47178
L47375 46784
L47187 46784
" />
<path d="M46793 47178
L46925 46990
" />
<path d="M47018 47178
L47018 46784
L46868 46784
L46831 46803
L46812 46821
L46793 46859
L46793 46915
L46812 46953
L46831 46971
L46868 46990
L47018 46990
" />
<path d="M49981 42303
L50018 42284
L50074 42284
L50131 42303
L50168 42340
L50187 42378
L50206 42453
L50206 42509
L50187 42584
L50168 42621
L50131 42659
L50074 42678
L50037 42678
L49981 42659
L49962 42640
L49962 42509
L50037 42509
" />
<path d="M49793 42678
L49793 42284
L49568 42678
L49568 42284
" />
<path d="M49381 42678
L49381 42284
L49287 42284
L49231 42303
L49193 42340
L49174 42378
L49156 42453
L49156 42509
L49174 42584
L49193 42621
L49231 42659
L49287 42678
L49381 42678
" />
<path d="M48687 42678
L48687 42284
L48593 42284
L48537 42303
L48500 42340
L48481 42378
L48462 42453
L48462 42509
L48481 42584
L48500 42621
L48537 42659
L48593 42678
L48687 42678
" />
<path d="M48068 42678
L48200 42490
" />
<path d="M48293 42678
L48293 42284
L48143 42284
L48106 42303
L48087 42321
L48068 42359
L48068 42415
L48087 42453
L48106 42471
L48143 42490
L48293 42490
" />
<path d="M47900 42678
L47900 42284
" />
<path d="M47768 42284
L47637 42678
L47506 42284
" />
<path d="M47375 42471
L47243 42471
" />
<path d="M47187 42678
L47375 42678
L47375 42284
L47187 42284
" />
<path d="M46793 42678
L46925 42490
" />
<path d="M47018 42678
L47018 42284
L46868 42284
L46831 42303
L46812 42321
L46793 42359
L46793 42415
L46812 42453
L46831 42471
L46868 42490
L47018 42490
" />
<path d="M49981 38303
L50018 38284
L50074 38284
L50131 38303
L50168 38340
L50187 38378
L50206 38453
L50206 38509
L50187 38584
L50168 38621
L50131 38659
L50074 38678
L50037 38678
L49981 38659
L49962 38640
L49962 38509
L50037 38509
" />
<path d="M49793 38678
L49793 38284
L49568 38678
L49568 38284
" />
<path d="M49381 38678
L49381 38284
L49287 38284
L49231 38303
L49193 38340
L49174 38378
L49156 38453
L49156 38509
L49174 38584
L49193 38621
L49231 38659
L49287 38678
L49381 38678
" />
<path d="M48687 38678
L48687 38284
L48593 38284
L48537 38303
L48500 38340
L48481 38378
L48462 38453
L48462 38509
L48481 38584
L48500 38621
L48537 38659
L48593 38678
L48687 38678
" />
<path d="M48068 38678
L48200 38490
" />
<path d="M48293 38678
L48293 38284
L48143 38284
L48106 38303
L48087 38321
L48068 38359
L48068 38415
L48087 38453
L48106 38471
L48143 38490
L48293 38490
" />
<path d="M47900 38678
L47900 38284
" />
<path d="M47768 38284
L47637 38678
L47506 38284
" />
<path d="M47375 38471
L47243 38471
" />
<path d="M47187 38678
L47375 38678
L47375 38284
L47187 38284
" />
<path d="M46793 38678
L46925 38490
" />
<path d="M47018 38678
L47018 38284
L46868 38284
L46831 38303
L46812 38321
L46793 38359
L46793 38415
L46812 38453
L46831 38471
L46868 38490
L47018 38490
" />
<path d="M49981 34803
L50018 34784
L50074 34784
L50131 34803
L50168 34840
L50187 34878
L50206 34953
L50206 35009
L50187 35084
L50168 35121
L50131 35159
L50074 35178
L50037 35178
L49981 35159
L49962 35140
L49962 35009
L50037 35009
" />
<path d="M49793 35178
L49793 34784
L49568 35178
L49568 34784
" />
<path d="M49381 35178
L49381 34784
L49287 34784
L49231 34803
L49193 34840
L49174 34878
L49156 34953
L49156 35009
L49174 35084
L49193 35121
L49231 35159
L49287 35178
L49381 35178
" />
<path d="M48687 35178
L48687 34784
L48593 34784
L48537 34803
L48500 34840
L48481 34878
L48462 34953
L48462 35009
L48481 35084
L48500 35121
L48537 35159
L48593 35178
L48687 35178
" />
<path d="M48068 35178
L48200 34990
" />
<path d="M48293 35178
L48293 34784
L48143 34784
L48106 34803
L48087 34821
L48068 34859
L48068 34915
L48087 34953
L48106 34971
L48143 34990
L48293 34990
" />
<path d="M47900 35178
L47900 34784
" />
<path d="M47768 34784
L47637 35178
L47506 34784
" />
<path d="M47375 34971
L47243 34971
" />
<path d="M47187 35178
L47375 35178
L47375 34784
L47187 34784
" />
<path d="M46793 35178
L46925 34990
" />
<path d="M47018 35178
L47018 34784
L46868 34784
L46831 34803
L46812 34821
L46793 34859
L46793 34915
L46812 34953
L46831 34971
L46868 34990
L47018 34990
" />
<path d="M49981 29303
L50018 29284
L50074 29284
L50131 29303
L50168 29340
L50187 29378
L50206 29453
L50206 29509
L50187 29584
L50168 29621
L50131 29659
L50074 29678
L50037 29678
L49981 29659
L49962 29640
L49962 29509
L50037 29509
" />
<path d="M49793 29678
L49793 29284
L49568 29678
L49568 29284
" />
<path d="M49381 29678
L49381 29284
L49287 29284
L49231 29303
L49193 29340
L49174 29378
L49156 29453
L49156 29509
L49174 29584
L49193 29621
L49231 29659
L49287 29678
L49381 29678
" />
<path d="M48687 29678
L48687 29284
L48593 29284
L48537 29303
L48500 29340
L48481 29378
L48462 29453
L48462 29509
L48481 29584
L48500 29621
L48537 29659
L48593 29678
L48687 29678
" />
<path d="M48068 29678
L48200 29490
" />
<path d="M48293 29678
L48293 29284
L48143 29284
L48106 29303
L48087 29321
L48068 29359
L48068 29415
L48087 29453
L48106 29471
L48143 29490
L48293 29490
" />
<path d="M47900 29678
L47900 29284
" />
<path d="M47768 29284
L47637 29678
L47506 29284
" />
<path d="M47375 29471
L47243 29471
" />
<path d="M47187 29678
L47375 29678
L47375 29284
L47187 29284
" />
<path d="M46793 29678
L46925 29490
" />
<path d="M47018 29678
L47018 29284
L46868 29284
L46831 29303
L46812 29321
L46793 29359
L46793 29415
L46812 29453
L46831 29471
L46868 29490
L47018 29490
" />
<path d="M49981 25303
L50018 25284
L50074 25284
L50131 25303
L50168 25340
L50187 25378
L50206 25453
L50206 25509
L50187 25584
L50168 25621
L50131 25659
L50074 25678
L50037 25678
L49981 25659
L49962 25640
L49962 25509
L50037 25509
" />
<path d="M49793 25678
L49793 25284
L49568 25678
L49568 25284
" />
<path d="M49381 25678
L49381 25284
L49287 25284
L49231 25303
L49193 25340
L49174 25378
L49156 25453
L49156 25509
L49174 25584
L49193 25621
L49231 25659
L49287 25678
L49381 25678
" />
<path d="M48687 25678
L48687 25284
L48593 25284
L48537 25303
L48500 25340
L48481 25378
L48462 25453
L48462 25509
L48481 25584
L48500 25621
L48537 25659
L48593 25678
L48687 25678
" />
<path d="M48068 25678
L48200 25490
" />
<path d="M48293 25678
L48293 25284
L48143 25284
L48106 25303
L48087 25321
L48068 25359
L48068 25415
L48087 25453
L48106 25471
L48143 25490
L48293 25490
" />
<path d="M47900 25678
L47900 25284
" />
<path d="M47768 25284
L47637 25678
L47506 25284
" />
<path d="M47375 25471
L47243 25471
" />
<path d="M47187 25678
L47375 25678
L47375 25284
L47187 25284
" />
<path d="M46793 25678
L46925 25490
" />
<path d="M47018 25678
L47018 25284
L46868 25284
L46831 25303
L46812 25321
L46793 25359
L46793 25415
L46812 25453
L46831 25471
L46868 25490
L47018 25490
" />
<path d="M49981 21803
L50018 21784
L50074 21784
L50131 21803
L50168 21840
L50187 21878
L50206 21953
L50206 22009
L50187 22084
L50168 22121
L50131 22159
L50074 22178
L50037 22178
L49981 22159
L49962 22140
L49962 22009
L50037 22009
" />
<path d="M49793 22178
L49793 21784
L49568 22178
L49568 21784
" />
<path d="M49381 22178
L49381 21784
L49287 21784
L49231 21803
L49193 21840
L49174 21878
L49156 21953
L49156 22009
L49174 22084
L49193 22121
L49231 22159
L49287 22178
L49381 22178
" />
<path d="M48687 22178
L48687 21784
L48593 21784
L48537 21803
L48500 21840
L48481 21878
L48462 21953
L48462 22009
L48481 22084
L48500 22121
L48537 22159
L48593 22178
L48687 22178
" />
<path d="M48068 22178
L48200 21990
" />
<path d="M48293 22178
L48293 21784
L48143 21784
L48106 21803
L48087 21821
L48068 21859
L48068 21915
L48087 21953
L48106 21971
L48143 21990
L48293 21990
" />
<path d="M47900 22178
L47900 21784
" />
<path d="M47768 21784
L47637 22178
L47506 21784
" />
<path d="M47375 21971
L47243 21971
" />
<path d="M47187 22178
L47375 22178
L47375 21784
L47187 21784
" />
<path d="M46793 22178
L46925 21990
" />
<path d="M47018 22178
L47018 21784
L46868 21784
L46831 21803
L46812 21821
L46793 21859
L46793 21915
L46812 21953
L46831 21971
L46868 21990
L47018 21990
" />
<path d="M63996 27784
L63996 28103
L63978 28140
L63959 28159
L63921 28178
L63846 28178
L63809 28159
L63790 28140
L63771 28103
L63771 27784
" />
<path d="M63603 28159
L63546 28178
L63453 28178
L63415 28159
L63396 28140
L63378 28103
L63378 28065
L63396 28028
L63415 28009
L63453 27990
L63528 27971
L63565 27953
L63584 27934
L63603 27896
L63603 27859
L63584 27821
L63565 27803
L63528 27784
L63434 27784
L63378 27803
" />
<path d="M63078 27971
L63021 27990
L63003 28009
L62984 28046
L62984 28103
L63003 28140
L63021 28159
L63059 28178
L63209 28178
L63209 27784
L63078 27784
L63040 27803
L63021 27821
L63003 27859
L63003 27896
L63021 27934
L63040 27953
L63078 27971
L63209 27971
" />
<path d="M68631 33725
L68631 34100
" />
<path d="M68856 33650
L68068 33913
L68856 34175
" />
<path d="M68856 34887
L68481 34625
" />
<path d="M68856 34437
L68068 34437
L68068 34737
L68106 34812
L68143 34850
L68218 34887
L68331 34887
L68406 34850
L68443 34812
L68481 34737
L68481 34437
" />
<path d="M68856 35225
L68068 35225
L68068 35412
L68106 35525
L68181 35600
L68256 35637
L68406 35675
L68518 35675
L68668 35637
L68743 35600
L68818 35525
L68856 35412
L68856 35225
" />
<path d="M68068 36012
L68706 36012
L68781 36050
L68818 36087
L68856 36162
L68856 36312
L68818 36387
L68781 36425
L68706 36462
L68068 36462
" />
<path d="M68856 36837
L68068 36837
" />
<path d="M68856 37212
L68068 37212
L68856 37662
L68068 37662
" />
<path d="M68068 38187
L68068 38337
L68106 38412
L68181 38487
L68331 38524
L68593 38524
L68743 38487
L68818 38412
L68856 38337
L68856 38187
L68818 38112
L68743 38037
L68593 38000
L68331 38000
L68181 38037
L68106 38112
L68068 38187
" />
<path d="M68856 39462
L68068 39462
L68856 39912
L68068 39912
" />
<path d="M68631 40249
L68631 40624
" />
<path d="M68856 40174
L68068 40437
L68856 40699
" />
<path d="M68856 40962
L68068 40962
L68856 41412
L68068 41412
" />
<path d="M68068 41937
L68068 42086
L68106 42161
L68181 42236
L68331 42274
L68593 42274
L68743 42236
L68818 42161
L68856 42086
L68856 41937
L68818 41862
L68743 41787
L68593 41749
L68331 41749
L68181 41787
L68106 41862
L68068 41937
" />
</g>
<g style="fill:#000000; fill-opacity:0.0; 
stroke:#000000; stroke-width:47.2441; stroke-opacity:1; 
stroke-linecap:round; stroke-linejoin:round;">
<path d="M45377 32681
L46559 32681
" />
<path d="M46559 32681
L46559 31500
" />
<path d="M46409 32531
L46409 20625
" />
<path d="M46409 20625
L41393 20625
" />
<path d="M41393 32531
L41393 20625
" />
<path d="M46409 32531
L41393 32531
" />
<path d="M46409 32531
L46409 20625
" />
<path d="M46409 20625
L41393 20625
" />
<path d="M41393 32531
L41393 20625
" />
<path d="M46409 32531
L41393 32531
" />
<path d="M45377 58181
L46559 58181
" />
<path d="M46559 58181
L46559 57000
" />
<path d="M46409 58031
L46409 46125
" />
<path d="M46409 46125
L41393 46125
" />
<path d="M41393 58031
L41393 46125
" />
<path d="M46409 58031
L41393 58031
" />
<path d="M46409 58031
L46409 46125
" />
<path d="M46409 46125
L41393 46125
" />
<path d="M41393 58031
L41393 46125
" />
<path d="M46409 58031
L41393 58031
" />
<path d="M45377 45681
L46559 45681
" />
<path d="M46559 45681
L46559 44500
" />
<path d="M46409 45531
L46409 33625
" />
<path d="M46409 33625
L41393 33625
" />
<path d="M41393 45531
L41393 33625
" />
<path d="M46409 45531
L41393 45531
" />
<path d="M46409 45531
L46409 33625
" />
<path d="M46409 33625
L41393 33625
" />
<path d="M41393 45531
L41393 33625
" />
<path d="M46409 45531
L41393 45531
" />
<path d="M61000 45000
L61000 46000
" />
<path d="M61000 46000
L59948 46000
" />
<path d="M59948 45000
L59948 29948
" />
<path d="M59948 47051
L59948 46000
" />
<path d="M66000 46000
L67051 46000
" />
<path d="M66000 46000
L66000 31000
" />
<path d="M66000 31000
L67051 31000
" />
<path d="M61000 45000
L59948 45000
" />
<path d="M61000 45000
L61000 31000
" />
<path d="M61000 31000
L59948 31000
" />
<path d="M59948 29948
L67051 29948
" />
<path d="M67051 29948
L67051 47051
" />
<path d="M67051 47051
L59948 47051
" />
<g >
</g>
</g> 
</svg>
