<?xml version="1.0" standalone="no"?>
 <!DOCTYPE svg PUBLIC "-//W3C//DTD SVG 1.1//EN" 
 "http://www.w3.org/Graphics/SVG/1.1/DTD/svg11.dtd"> 
<svg xmlns="http://www.w3.org/2000/svg" version="1.1" 
    width="29.7002cm" height="21.0007cm" viewBox="0 0 116930 82680 ">
<title>SVG Picture created as CNC REVERSA-F_Mask.svg date 2019/11/12 17:44:12 </title>
  <desc>Picture generated by PCBNEW </desc>
<g style="fill:#000000; fill-opacity:1;stroke:#000000; stroke-opacity:1;
stroke-linecap:round; stroke-linejoin:round; "
 transform="translate(0 0) scale(1 1)">
</g>
<g style="fill:#000000; fill-opacity:0.0; 
stroke:#000000; stroke-width:-0.000393701; stroke-opacity:1; 
stroke-linecap:round; stroke-linejoin:round;">
</g>
<g style="fill:#000000; fill-opacity:1.0; 
stroke:#000000; stroke-width:0; stroke-opacity:1; 
stroke-linecap:round; stroke-linejoin:round;">
<path style="fill:#000000; fill-opacity:1.0; 
stroke:#000000; stroke-width:0; stroke-opacity:1; 
stroke-linecap:round; stroke-linejoin:round;fill-rule:evenodd;"
d="M 44610,57610
43389,57610
43389,56389
44610,56389
44610,57610
Z" /> 
<path style="fill:#000000; fill-opacity:1.0; 
stroke:#000000; stroke-width:0; stroke-opacity:1; 
stroke-linecap:round; stroke-linejoin:round;fill-rule:evenodd;"
d="M 44119,54432
44178,54444
44289,54490
44389,54557
44474,54642
44541,54742
44587,54853
44610,54971
44610,55091
44587,55209
44541,55320
44474,55420
44389,55505
44289,55572
44178,55618
44119,55630
44060,55642
43939,55642
43880,55630
43821,55618
43710,55572
43610,55505
43525,55420
43458,55320
43412,55209
43389,55091
43389,54971
43412,54853
43458,54742
43525,54642
43610,54557
43710,54490
43821,54444
43880,54432
43939,54420
44060,54420
44119,54432
Z" /> 
<path style="fill:#000000; fill-opacity:1.0; 
stroke:#000000; stroke-width:0; stroke-opacity:1; 
stroke-linecap:round; stroke-linejoin:round;fill-rule:evenodd;"
d="M 44119,52464
44178,52475
44289,52521
44389,52588
44474,52673
44541,52773
44587,52884
44610,53002
44610,53123
44587,53241
44541,53352
44474,53452
44389,53537
44289,53604
44178,53650
44119,53661
44060,53673
43939,53673
43880,53661
43821,53650
43710,53604
43610,53537
43525,53452
43458,53352
43412,53241
43389,53123
43389,53002
43412,52884
43458,52773
43525,52673
43610,52588
43710,52521
43821,52475
43880,52464
43939,52452
44060,52452
44119,52464
Z" /> 
<path style="fill:#000000; fill-opacity:1.0; 
stroke:#000000; stroke-width:0; stroke-opacity:1; 
stroke-linecap:round; stroke-linejoin:round;fill-rule:evenodd;"
d="M 44119,50495
44178,50507
44289,50553
44389,50620
44474,50705
44541,50805
44587,50916
44610,51034
44610,51154
44587,51272
44541,51383
44474,51483
44389,51568
44289,51635
44178,51681
44119,51693
44060,51705
43939,51705
43880,51693
43821,51681
43710,51635
43610,51568
43525,51483
43458,51383
43412,51272
43389,51154
43389,51034
43412,50916
43458,50805
43525,50705
43610,50620
43710,50553
43821,50507
43880,50495
43939,50483
44060,50483
44119,50495
Z" /> 
<path style="fill:#000000; fill-opacity:1.0; 
stroke:#000000; stroke-width:0; stroke-opacity:1; 
stroke-linecap:round; stroke-linejoin:round;fill-rule:evenodd;"
d="M 44119,48527
44178,48538
44289,48584
44389,48651
44474,48736
44541,48836
44587,48947
44610,49065
44610,49186
44587,49304
44541,49415
44474,49515
44389,49600
44289,49667
44178,49713
44119,49724
44060,49736
43939,49736
43880,49724
43821,49713
43710,49667
43610,49600
43525,49515
43458,49415
43412,49304
43389,49186
43389,49065
43412,48947
43458,48836
43525,48736
43610,48651
43710,48584
43821,48538
43880,48527
43939,48515
44060,48515
44119,48527
Z" /> 
<path style="fill:#000000; fill-opacity:1.0; 
stroke:#000000; stroke-width:0; stroke-opacity:1; 
stroke-linecap:round; stroke-linejoin:round;fill-rule:evenodd;"
d="M 44119,46558
44178,46570
44289,46616
44389,46683
44474,46768
44541,46868
44587,46979
44610,47097
44610,47217
44587,47335
44541,47446
44474,47546
44389,47631
44289,47698
44178,47744
44119,47756
44060,47768
43939,47768
43880,47756
43821,47744
43710,47698
43610,47631
43525,47546
43458,47446
43412,47335
43389,47217
43389,47097
43412,46979
43458,46868
43525,46768
43610,46683
43710,46616
43821,46570
43880,46558
43939,46546
44060,46546
44119,46558
Z" /> 
<path style="fill:#000000; fill-opacity:1.0; 
stroke:#000000; stroke-width:0; stroke-opacity:1; 
stroke-linecap:round; stroke-linejoin:round;fill-rule:evenodd;"
d="M 66565,45169
66628,45188
66681,45216
66687,45220
66738,45261
66779,45312
66779,45312
66811,45371
66830,45434
66836,45500
66830,45565
66811,45628
66783,45681
66779,45687
66738,45738
66687,45779
66687,45779
66628,45811
66565,45830
66516,45835
66483,45835
66434,45830
66371,45811
66312,45779
66312,45779
66261,45738
66220,45687
66216,45681
66188,45628
66169,45565
66163,45500
66169,45434
66188,45371
66220,45312
66220,45312
66261,45261
66312,45220
66318,45216
66371,45188
66434,45169
66483,45164
66516,45164
66565,45169
Z" /> 
<path style="fill:#000000; fill-opacity:1.0; 
stroke:#000000; stroke-width:0; stroke-opacity:1; 
stroke-linecap:round; stroke-linejoin:round;fill-rule:evenodd;"
d="M 60835,45835
60164,45835
60164,45164
60835,45164
60835,45835
Z" /> 
<path style="fill:#000000; fill-opacity:1.0; 
stroke:#000000; stroke-width:0; stroke-opacity:1; 
stroke-linecap:round; stroke-linejoin:round;fill-rule:evenodd;"
d="M 44610,45110
43389,45110
43389,43889
44610,43889
44610,45110
Z" /> 
<path style="fill:#000000; fill-opacity:1.0; 
stroke:#000000; stroke-width:0; stroke-opacity:1; 
stroke-linecap:round; stroke-linejoin:round;fill-rule:evenodd;"
d="M 66565,44169
66628,44188
66681,44216
66687,44220
66738,44261
66779,44312
66779,44312
66811,44371
66830,44434
66836,44500
66830,44565
66811,44628
66783,44681
66779,44687
66738,44738
66687,44779
66687,44779
66628,44811
66565,44830
66516,44835
66483,44835
66434,44830
66371,44811
66312,44779
66312,44779
66261,44738
66220,44687
66216,44681
66188,44628
66169,44565
66163,44500
66169,44434
66188,44371
66220,44312
66220,44312
66261,44261
66312,44220
66318,44216
66371,44188
66434,44169
66483,44164
66516,44164
66565,44169
Z" /> 
<path style="fill:#000000; fill-opacity:1.0; 
stroke:#000000; stroke-width:0; stroke-opacity:1; 
stroke-linecap:round; stroke-linejoin:round;fill-rule:evenodd;"
d="M 60565,44169
60628,44188
60681,44216
60687,44220
60738,44261
60779,44312
60779,44312
60811,44371
60830,44434
60836,44500
60830,44565
60811,44628
60783,44681
60779,44687
60738,44738
60687,44779
60687,44779
60628,44811
60565,44830
60516,44835
60483,44835
60434,44830
60371,44811
60312,44779
60312,44779
60261,44738
60220,44687
60216,44681
60188,44628
60169,44565
60163,44500
60169,44434
60188,44371
60220,44312
60220,44312
60261,44261
60312,44220
60318,44216
60371,44188
60434,44169
60483,44164
60516,44164
60565,44169
Z" /> 
<path style="fill:#000000; fill-opacity:1.0; 
stroke:#000000; stroke-width:0; stroke-opacity:1; 
stroke-linecap:round; stroke-linejoin:round;fill-rule:evenodd;"
d="M 66565,43169
66628,43188
66681,43216
66687,43220
66738,43261
66779,43312
66779,43312
66811,43371
66830,43434
66836,43500
66830,43565
66811,43628
66783,43681
66779,43687
66738,43738
66687,43779
66687,43779
66628,43811
66565,43830
66516,43835
66483,43835
66434,43830
66371,43811
66312,43779
66312,43779
66261,43738
66220,43687
66216,43681
66188,43628
66169,43565
66163,43500
66169,43434
66188,43371
66220,43312
66220,43312
66261,43261
66312,43220
66318,43216
66371,43188
66434,43169
66483,43164
66516,43164
66565,43169
Z" /> 
<path style="fill:#000000; fill-opacity:1.0; 
stroke:#000000; stroke-width:0; stroke-opacity:1; 
stroke-linecap:round; stroke-linejoin:round;fill-rule:evenodd;"
d="M 60565,43169
60628,43188
60681,43216
60687,43220
60738,43261
60779,43312
60779,43312
60811,43371
60830,43434
60836,43500
60830,43565
60811,43628
60783,43681
60779,43687
60738,43738
60687,43779
60687,43779
60628,43811
60565,43830
60516,43835
60483,43835
60434,43830
60371,43811
60312,43779
60312,43779
60261,43738
60220,43687
60216,43681
60188,43628
60169,43565
60163,43500
60169,43434
60188,43371
60220,43312
60220,43312
60261,43261
60312,43220
60318,43216
60371,43188
60434,43169
60483,43164
60516,43164
60565,43169
Z" /> 
<path style="fill:#000000; fill-opacity:1.0; 
stroke:#000000; stroke-width:0; stroke-opacity:1; 
stroke-linecap:round; stroke-linejoin:round;fill-rule:evenodd;"
d="M 44119,41932
44178,41944
44289,41990
44389,42057
44474,42142
44541,42242
44587,42353
44610,42471
44610,42591
44587,42709
44541,42820
44474,42920
44389,43005
44289,43072
44178,43118
44119,43130
44060,43142
43939,43142
43880,43130
43821,43118
43710,43072
43610,43005
43525,42920
43458,42820
43412,42709
43389,42591
43389,42471
43412,42353
43458,42242
43525,42142
43610,42057
43710,41990
43821,41944
43880,41932
43939,41920
44060,41920
44119,41932
Z" /> 
<path style="fill:#000000; fill-opacity:1.0; 
stroke:#000000; stroke-width:0; stroke-opacity:1; 
stroke-linecap:round; stroke-linejoin:round;fill-rule:evenodd;"
d="M 60565,42169
60628,42188
60681,42216
60687,42220
60738,42261
60779,42312
60779,42312
60811,42371
60830,42434
60836,42500
60830,42565
60811,42628
60783,42681
60779,42687
60738,42738
60687,42779
60687,42779
60628,42811
60565,42830
60516,42835
60483,42835
60434,42830
60371,42811
60312,42779
60312,42779
60261,42738
60220,42687
60216,42681
60188,42628
60169,42565
60163,42500
60169,42434
60188,42371
60220,42312
60220,42312
60261,42261
60312,42220
60318,42216
60371,42188
60434,42169
60483,42164
60516,42164
60565,42169
Z" /> 
<path style="fill:#000000; fill-opacity:1.0; 
stroke:#000000; stroke-width:0; stroke-opacity:1; 
stroke-linecap:round; stroke-linejoin:round;fill-rule:evenodd;"
d="M 66565,42169
66628,42188
66681,42216
66687,42220
66738,42261
66779,42312
66779,42312
66811,42371
66830,42434
66836,42500
66830,42565
66811,42628
66783,42681
66779,42687
66738,42738
66687,42779
66687,42779
66628,42811
66565,42830
66516,42835
66483,42835
66434,42830
66371,42811
66312,42779
66312,42779
66261,42738
66220,42687
66216,42681
66188,42628
66169,42565
66163,42500
66169,42434
66188,42371
66220,42312
66220,42312
66261,42261
66312,42220
66318,42216
66371,42188
66434,42169
66483,42164
66516,42164
66565,42169
Z" /> 
<path style="fill:#000000; fill-opacity:1.0; 
stroke:#000000; stroke-width:0; stroke-opacity:1; 
stroke-linecap:round; stroke-linejoin:round;fill-rule:evenodd;"
d="M 60565,41169
60628,41188
60681,41216
60687,41220
60738,41261
60779,41312
60779,41312
60811,41371
60830,41434
60836,41500
60830,41565
60811,41628
60783,41681
60779,41687
60738,41738
60687,41779
60687,41779
60628,41811
60565,41830
60516,41835
60483,41835
60434,41830
60371,41811
60312,41779
60312,41779
60261,41738
60220,41687
60216,41681
60188,41628
60169,41565
60163,41500
60169,41434
60188,41371
60220,41312
60220,41312
60261,41261
60312,41220
60318,41216
60371,41188
60434,41169
60483,41164
60516,41164
60565,41169
Z" /> 
<path style="fill:#000000; fill-opacity:1.0; 
stroke:#000000; stroke-width:0; stroke-opacity:1; 
stroke-linecap:round; stroke-linejoin:round;fill-rule:evenodd;"
d="M 66565,41169
66628,41188
66681,41216
66687,41220
66738,41261
66779,41312
66779,41312
66811,41371
66830,41434
66836,41500
66830,41565
66811,41628
66783,41681
66779,41687
66738,41738
66687,41779
66687,41779
66628,41811
66565,41830
66516,41835
66483,41835
66434,41830
66371,41811
66312,41779
66312,41779
66261,41738
66220,41687
66216,41681
66188,41628
66169,41565
66163,41500
66169,41434
66188,41371
66220,41312
66220,41312
66261,41261
66312,41220
66318,41216
66371,41188
66434,41169
66483,41164
66516,41164
66565,41169
Z" /> 
<path style="fill:#000000; fill-opacity:1.0; 
stroke:#000000; stroke-width:0; stroke-opacity:1; 
stroke-linecap:round; stroke-linejoin:round;fill-rule:evenodd;"
d="M 44119,39964
44178,39975
44289,40021
44389,40088
44474,40173
44541,40273
44581,40371
44587,40384
44610,40502
44610,40623
44598,40682
44587,40741
44541,40852
44474,40952
44389,41037
44289,41104
44178,41150
44119,41161
44060,41173
43939,41173
43880,41161
43821,41150
43710,41104
43610,41037
43525,40952
43458,40852
43412,40741
43401,40682
43389,40623
43389,40502
43412,40384
43418,40371
43458,40273
43525,40173
43610,40088
43710,40021
43821,39975
43880,39964
43939,39952
44060,39952
44119,39964
Z" /> 
<path style="fill:#000000; fill-opacity:1.0; 
stroke:#000000; stroke-width:0; stroke-opacity:1; 
stroke-linecap:round; stroke-linejoin:round;fill-rule:evenodd;"
d="M 60565,40169
60628,40188
60681,40216
60687,40220
60738,40261
60779,40312
60779,40312
60811,40371
60830,40434
60836,40500
60830,40565
60811,40628
60783,40681
60779,40687
60738,40738
60687,40779
60687,40779
60628,40811
60565,40830
60516,40835
60483,40835
60434,40830
60371,40811
60312,40779
60312,40779
60261,40738
60220,40687
60216,40681
60188,40628
60169,40565
60163,40500
60169,40434
60188,40371
60220,40312
60220,40312
60261,40261
60312,40220
60318,40216
60371,40188
60434,40169
60483,40164
60516,40164
60565,40169
Z" /> 
<path style="fill:#000000; fill-opacity:1.0; 
stroke:#000000; stroke-width:0; stroke-opacity:1; 
stroke-linecap:round; stroke-linejoin:round;fill-rule:evenodd;"
d="M 66565,40169
66628,40188
66681,40216
66687,40220
66738,40261
66779,40312
66779,40312
66811,40371
66830,40434
66836,40500
66830,40565
66811,40628
66783,40681
66779,40687
66738,40738
66687,40779
66687,40779
66628,40811
66565,40830
66516,40835
66483,40835
66434,40830
66371,40811
66312,40779
66312,40779
66261,40738
66220,40687
66216,40681
66188,40628
66169,40565
66163,40500
66169,40434
66188,40371
66220,40312
66220,40312
66261,40261
66312,40220
66318,40216
66371,40188
66434,40169
66483,40164
66516,40164
66565,40169
Z" /> 
<path style="fill:#000000; fill-opacity:1.0; 
stroke:#000000; stroke-width:0; stroke-opacity:1; 
stroke-linecap:round; stroke-linejoin:round;fill-rule:evenodd;"
d="M 60565,39169
60628,39188
60659,39205
60687,39220
60738,39261
60779,39312
60779,39312
60811,39371
60830,39434
60836,39500
60830,39565
60811,39628
60783,39681
60779,39687
60738,39738
60687,39779
60687,39779
60628,39811
60565,39830
60516,39835
60483,39835
60434,39830
60371,39811
60312,39779
60312,39779
60261,39738
60220,39687
60216,39681
60188,39628
60169,39565
60163,39500
60169,39434
60188,39371
60220,39312
60220,39312
60261,39261
60312,39220
60340,39205
60371,39188
60434,39169
60483,39164
60516,39164
60565,39169
Z" /> 
<path style="fill:#000000; fill-opacity:1.0; 
stroke:#000000; stroke-width:0; stroke-opacity:1; 
stroke-linecap:round; stroke-linejoin:round;fill-rule:evenodd;"
d="M 66565,39169
66628,39188
66659,39205
66687,39220
66738,39261
66779,39312
66779,39312
66811,39371
66830,39434
66836,39500
66830,39565
66811,39628
66783,39681
66779,39687
66738,39738
66687,39779
66687,39779
66628,39811
66565,39830
66516,39835
66483,39835
66434,39830
66371,39811
66312,39779
66312,39779
66261,39738
66220,39687
66216,39681
66188,39628
66169,39565
66163,39500
66169,39434
66188,39371
66220,39312
66220,39312
66261,39261
66312,39220
66340,39205
66371,39188
66434,39169
66483,39164
66516,39164
66565,39169
Z" /> 
<path style="fill:#000000; fill-opacity:1.0; 
stroke:#000000; stroke-width:0; stroke-opacity:1; 
stroke-linecap:round; stroke-linejoin:round;fill-rule:evenodd;"
d="M 44119,37995
44178,38007
44289,38053
44389,38120
44474,38205
44541,38305
44587,38416
44610,38534
44610,38654
44587,38772
44541,38883
44474,38983
44389,39068
44289,39135
44178,39181
44141,39188
44060,39205
43939,39205
43858,39188
43821,39181
43710,39135
43610,39068
43525,38983
43458,38883
43412,38772
43389,38654
43389,38534
43412,38416
43458,38305
43525,38205
43610,38120
43710,38053
43821,38007
43880,37995
43939,37983
44060,37983
44119,37995
Z" /> 
<path style="fill:#000000; fill-opacity:1.0; 
stroke:#000000; stroke-width:0; stroke-opacity:1; 
stroke-linecap:round; stroke-linejoin:round;fill-rule:evenodd;"
d="M 66565,38169
66628,38188
66659,38205
66687,38220
66738,38261
66779,38312
66779,38312
66811,38371
66830,38434
66836,38500
66830,38565
66811,38628
66797,38654
66779,38687
66738,38738
66687,38779
66687,38779
66628,38811
66565,38830
66516,38835
66483,38835
66434,38830
66371,38811
66312,38779
66312,38779
66261,38738
66220,38687
66202,38654
66188,38628
66169,38565
66163,38500
66169,38434
66188,38371
66220,38312
66220,38312
66261,38261
66312,38220
66340,38205
66371,38188
66434,38169
66483,38164
66516,38164
66565,38169
Z" /> 
<path style="fill:#000000; fill-opacity:1.0; 
stroke:#000000; stroke-width:0; stroke-opacity:1; 
stroke-linecap:round; stroke-linejoin:round;fill-rule:evenodd;"
d="M 60565,38169
60628,38188
60659,38205
60687,38220
60738,38261
60779,38312
60779,38312
60811,38371
60830,38434
60836,38500
60830,38565
60811,38628
60797,38654
60779,38687
60738,38738
60687,38779
60687,38779
60628,38811
60565,38830
60516,38835
60483,38835
60434,38830
60371,38811
60312,38779
60312,38779
60261,38738
60220,38687
60202,38654
60188,38628
60169,38565
60163,38500
60169,38434
60188,38371
60220,38312
60220,38312
60261,38261
60312,38220
60340,38205
60371,38188
60434,38169
60483,38164
60516,38164
60565,38169
Z" /> 
<path style="fill:#000000; fill-opacity:1.0; 
stroke:#000000; stroke-width:0; stroke-opacity:1; 
stroke-linecap:round; stroke-linejoin:round;fill-rule:evenodd;"
d="M 60565,37169
60628,37188
60681,37216
60687,37220
60738,37261
60779,37312
60779,37312
60811,37371
60830,37434
60836,37500
60830,37565
60811,37628
60783,37681
60779,37687
60738,37738
60687,37779
60687,37779
60628,37811
60565,37830
60516,37835
60483,37835
60434,37830
60371,37811
60312,37779
60312,37779
60261,37738
60220,37687
60216,37681
60188,37628
60169,37565
60163,37500
60169,37434
60188,37371
60220,37312
60220,37312
60261,37261
60312,37220
60318,37216
60371,37188
60434,37169
60483,37164
60516,37164
60565,37169
Z" /> 
<path style="fill:#000000; fill-opacity:1.0; 
stroke:#000000; stroke-width:0; stroke-opacity:1; 
stroke-linecap:round; stroke-linejoin:round;fill-rule:evenodd;"
d="M 66565,37169
66628,37188
66681,37216
66687,37220
66738,37261
66779,37312
66779,37312
66811,37371
66830,37434
66836,37500
66830,37565
66811,37628
66783,37681
66779,37687
66738,37738
66687,37779
66687,37779
66628,37811
66565,37830
66516,37835
66483,37835
66434,37830
66371,37811
66312,37779
66312,37779
66261,37738
66220,37687
66216,37681
66188,37628
66169,37565
66163,37500
66169,37434
66188,37371
66220,37312
66220,37312
66261,37261
66312,37220
66318,37216
66371,37188
66434,37169
66483,37164
66516,37164
66565,37169
Z" /> 
<path style="fill:#000000; fill-opacity:1.0; 
stroke:#000000; stroke-width:0; stroke-opacity:1; 
stroke-linecap:round; stroke-linejoin:round;fill-rule:evenodd;"
d="M 44119,36027
44178,36038
44289,36084
44389,36151
44474,36236
44541,36336
44587,36447
44587,36447
44610,36565
44610,36686
44610,36687
44587,36804
44541,36915
44474,37015
44389,37100
44289,37167
44178,37213
44119,37224
44060,37236
43939,37236
43880,37224
43821,37213
43710,37167
43610,37100
43525,37015
43458,36915
43412,36804
43389,36687
43389,36686
43389,36565
43412,36447
43412,36447
43458,36336
43525,36236
43610,36151
43710,36084
43821,36038
43880,36027
43939,36015
44060,36015
44119,36027
Z" /> 
<path style="fill:#000000; fill-opacity:1.0; 
stroke:#000000; stroke-width:0; stroke-opacity:1; 
stroke-linecap:round; stroke-linejoin:round;fill-rule:evenodd;"
d="M 60565,36169
60628,36188
60681,36216
60687,36220
60738,36261
60779,36312
60779,36312
60811,36371
60830,36434
60836,36500
60830,36565
60811,36628
60783,36681
60779,36687
60738,36738
60687,36779
60687,36779
60628,36811
60565,36830
60516,36835
60483,36835
60434,36830
60371,36811
60312,36779
60312,36779
60261,36738
60220,36687
60216,36681
60188,36628
60169,36565
60163,36500
60169,36434
60188,36371
60220,36312
60220,36312
60261,36261
60312,36220
60318,36216
60371,36188
60434,36169
60483,36164
60516,36164
60565,36169
Z" /> 
<path style="fill:#000000; fill-opacity:1.0; 
stroke:#000000; stroke-width:0; stroke-opacity:1; 
stroke-linecap:round; stroke-linejoin:round;fill-rule:evenodd;"
d="M 66565,36169
66628,36188
66681,36216
66687,36220
66738,36261
66779,36312
66779,36312
66811,36371
66830,36434
66836,36500
66830,36565
66811,36628
66783,36681
66779,36687
66738,36738
66687,36779
66687,36779
66628,36811
66565,36830
66516,36835
66483,36835
66434,36830
66371,36811
66312,36779
66312,36779
66261,36738
66220,36687
66216,36681
66188,36628
66169,36565
66163,36500
66169,36434
66188,36371
66220,36312
66220,36312
66261,36261
66312,36220
66318,36216
66371,36188
66434,36169
66483,36164
66516,36164
66565,36169
Z" /> 
<path style="fill:#000000; fill-opacity:1.0; 
stroke:#000000; stroke-width:0; stroke-opacity:1; 
stroke-linecap:round; stroke-linejoin:round;fill-rule:evenodd;"
d="M 60565,35169
60628,35188
60681,35216
60687,35220
60738,35261
60779,35312
60779,35312
60811,35371
60830,35434
60836,35500
60830,35565
60811,35628
60783,35681
60779,35687
60738,35738
60687,35779
60687,35779
60628,35811
60565,35830
60516,35835
60483,35835
60434,35830
60371,35811
60312,35779
60312,35779
60261,35738
60220,35687
60216,35681
60188,35628
60169,35565
60163,35500
60169,35434
60188,35371
60220,35312
60220,35312
60261,35261
60312,35220
60318,35216
60371,35188
60434,35169
60483,35164
60516,35164
60565,35169
Z" /> 
<path style="fill:#000000; fill-opacity:1.0; 
stroke:#000000; stroke-width:0; stroke-opacity:1; 
stroke-linecap:round; stroke-linejoin:round;fill-rule:evenodd;"
d="M 66565,35169
66628,35188
66681,35216
66687,35220
66738,35261
66779,35312
66779,35312
66811,35371
66830,35434
66836,35500
66830,35565
66811,35628
66783,35681
66779,35687
66738,35738
66687,35779
66687,35779
66628,35811
66565,35830
66516,35835
66483,35835
66434,35830
66371,35811
66312,35779
66312,35779
66261,35738
66220,35687
66216,35681
66188,35628
66169,35565
66163,35500
66169,35434
66188,35371
66220,35312
66220,35312
66261,35261
66312,35220
66318,35216
66371,35188
66434,35169
66483,35164
66516,35164
66565,35169
Z" /> 
<path style="fill:#000000; fill-opacity:1.0; 
stroke:#000000; stroke-width:0; stroke-opacity:1; 
stroke-linecap:round; stroke-linejoin:round;fill-rule:evenodd;"
d="M 44119,34058
44178,34070
44289,34116
44389,34183
44474,34268
44541,34368
44587,34479
44587,34479
44604,34565
44610,34597
44610,34717
44587,34835
44541,34946
44474,35046
44389,35131
44289,35198
44178,35244
44119,35256
44060,35268
43939,35268
43880,35256
43821,35244
43710,35198
43610,35131
43525,35046
43458,34946
43412,34835
43389,34717
43389,34597
43395,34565
43412,34479
43412,34479
43458,34368
43525,34268
43610,34183
43710,34116
43821,34070
43880,34058
43939,34046
44060,34046
44119,34058
Z" /> 
<path style="fill:#000000; fill-opacity:1.0; 
stroke:#000000; stroke-width:0; stroke-opacity:1; 
stroke-linecap:round; stroke-linejoin:round;fill-rule:evenodd;"
d="M 66565,34169
66628,34188
66681,34216
66687,34220
66738,34261
66779,34312
66779,34312
66811,34371
66830,34434
66836,34500
66830,34565
66811,34628
66783,34681
66779,34687
66738,34738
66687,34779
66687,34779
66628,34811
66565,34830
66516,34835
66483,34835
66434,34830
66371,34811
66312,34779
66312,34779
66261,34738
66220,34687
66216,34681
66188,34628
66169,34565
66163,34500
66169,34434
66188,34371
66220,34312
66220,34312
66261,34261
66312,34220
66318,34216
66371,34188
66434,34169
66483,34164
66516,34164
66565,34169
Z" /> 
<path style="fill:#000000; fill-opacity:1.0; 
stroke:#000000; stroke-width:0; stroke-opacity:1; 
stroke-linecap:round; stroke-linejoin:round;fill-rule:evenodd;"
d="M 60565,34169
60628,34188
60681,34216
60687,34220
60738,34261
60779,34312
60779,34312
60811,34371
60830,34434
60836,34500
60830,34565
60811,34628
60783,34681
60779,34687
60738,34738
60687,34779
60687,34779
60628,34811
60565,34830
60516,34835
60483,34835
60434,34830
60371,34811
60312,34779
60312,34779
60261,34738
60220,34687
60216,34681
60188,34628
60169,34565
60163,34500
60169,34434
60188,34371
60220,34312
60220,34312
60261,34261
60312,34220
60318,34216
60371,34188
60434,34169
60483,34164
60516,34164
60565,34169
Z" /> 
<path style="fill:#000000; fill-opacity:1.0; 
stroke:#000000; stroke-width:0; stroke-opacity:1; 
stroke-linecap:round; stroke-linejoin:round;fill-rule:evenodd;"
d="M 66565,33169
66628,33188
66681,33216
66687,33220
66738,33261
66779,33312
66779,33312
66811,33371
66830,33434
66836,33500
66830,33565
66811,33628
66783,33681
66779,33687
66738,33738
66687,33779
66687,33779
66628,33811
66565,33830
66516,33835
66483,33835
66434,33830
66371,33811
66312,33779
66312,33779
66261,33738
66220,33687
66216,33681
66188,33628
66169,33565
66163,33500
66169,33434
66188,33371
66220,33312
66220,33312
66261,33261
66312,33220
66318,33216
66371,33188
66434,33169
66483,33164
66516,33164
66565,33169
Z" /> 
<path style="fill:#000000; fill-opacity:1.0; 
stroke:#000000; stroke-width:0; stroke-opacity:1; 
stroke-linecap:round; stroke-linejoin:round;fill-rule:evenodd;"
d="M 60565,33169
60628,33188
60681,33216
60687,33220
60738,33261
60779,33312
60779,33312
60811,33371
60830,33434
60836,33500
60830,33565
60811,33628
60783,33681
60779,33687
60738,33738
60687,33779
60687,33779
60628,33811
60565,33830
60516,33835
60483,33835
60434,33830
60371,33811
60312,33779
60312,33779
60261,33738
60220,33687
60216,33681
60188,33628
60169,33565
60163,33500
60169,33434
60188,33371
60220,33312
60220,33312
60261,33261
60312,33220
60318,33216
60371,33188
60434,33169
60483,33164
60516,33164
60565,33169
Z" /> 
<path style="fill:#000000; fill-opacity:1.0; 
stroke:#000000; stroke-width:0; stroke-opacity:1; 
stroke-linecap:round; stroke-linejoin:round;fill-rule:evenodd;"
d="M 66565,32169
66628,32188
66681,32216
66687,32220
66738,32261
66779,32312
66779,32312
66811,32371
66830,32434
66836,32500
66830,32565
66811,32628
66783,32681
66779,32687
66738,32738
66687,32779
66687,32779
66628,32811
66565,32830
66516,32835
66483,32835
66434,32830
66371,32811
66312,32779
66312,32779
66261,32738
66220,32687
66216,32681
66188,32628
66169,32565
66163,32500
66169,32434
66188,32371
66220,32312
66220,32312
66261,32261
66312,32220
66318,32216
66371,32188
66434,32169
66483,32164
66516,32164
66565,32169
Z" /> 
<path style="fill:#000000; fill-opacity:1.0; 
stroke:#000000; stroke-width:0; stroke-opacity:1; 
stroke-linecap:round; stroke-linejoin:round;fill-rule:evenodd;"
d="M 60565,32169
60628,32188
60681,32216
60687,32220
60738,32261
60779,32312
60779,32312
60811,32371
60830,32434
60836,32500
60830,32565
60811,32628
60783,32681
60779,32687
60738,32738
60687,32779
60687,32779
60628,32811
60565,32830
60516,32835
60483,32835
60434,32830
60371,32811
60312,32779
60312,32779
60261,32738
60220,32687
60216,32681
60188,32628
60169,32565
60163,32500
60169,32434
60188,32371
60220,32312
60220,32312
60261,32261
60312,32220
60318,32216
60371,32188
60434,32169
60483,32164
60516,32164
60565,32169
Z" /> 
<path style="fill:#000000; fill-opacity:1.0; 
stroke:#000000; stroke-width:0; stroke-opacity:1; 
stroke-linecap:round; stroke-linejoin:round;fill-rule:evenodd;"
d="M 44610,32110
43389,32110
43389,30889
44610,30889
44610,32110
Z" /> 
<path style="fill:#000000; fill-opacity:1.0; 
stroke:#000000; stroke-width:0; stroke-opacity:1; 
stroke-linecap:round; stroke-linejoin:round;fill-rule:evenodd;"
d="M 60565,31169
60628,31188
60681,31216
60687,31220
60738,31261
60779,31312
60779,31312
60811,31371
60830,31434
60836,31500
60830,31565
60811,31628
60783,31681
60779,31687
60738,31738
60687,31779
60687,31779
60628,31811
60565,31830
60516,31835
60483,31835
60434,31830
60371,31811
60312,31779
60312,31779
60261,31738
60220,31687
60216,31681
60188,31628
60169,31565
60163,31500
60169,31434
60188,31371
60220,31312
60220,31312
60261,31261
60312,31220
60318,31216
60371,31188
60434,31169
60483,31164
60516,31164
60565,31169
Z" /> 
<path style="fill:#000000; fill-opacity:1.0; 
stroke:#000000; stroke-width:0; stroke-opacity:1; 
stroke-linecap:round; stroke-linejoin:round;fill-rule:evenodd;"
d="M 66565,31169
66628,31188
66681,31216
66687,31220
66738,31261
66779,31312
66779,31312
66811,31371
66830,31434
66836,31500
66830,31565
66811,31628
66783,31681
66779,31687
66738,31738
66687,31779
66687,31779
66628,31811
66565,31830
66516,31835
66483,31835
66434,31830
66371,31811
66312,31779
66312,31779
66261,31738
66220,31687
66216,31681
66188,31628
66169,31565
66163,31500
66169,31434
66188,31371
66220,31312
66220,31312
66261,31261
66312,31220
66318,31216
66371,31188
66434,31169
66483,31164
66516,31164
66565,31169
Z" /> 
<path style="fill:#000000; fill-opacity:1.0; 
stroke:#000000; stroke-width:0; stroke-opacity:1; 
stroke-linecap:round; stroke-linejoin:round;fill-rule:evenodd;"
d="M 44119,28932
44178,28944
44289,28990
44389,29057
44474,29142
44541,29242
44587,29353
44610,29471
44610,29591
44587,29709
44541,29820
44474,29920
44389,30005
44289,30072
44178,30118
44119,30130
44060,30142
43939,30142
43880,30130
43821,30118
43710,30072
43610,30005
43525,29920
43458,29820
43412,29709
43389,29591
43389,29471
43412,29353
43458,29242
43525,29142
43610,29057
43710,28990
43821,28944
43880,28932
43939,28920
44060,28920
44119,28932
Z" /> 
<path style="fill:#000000; fill-opacity:1.0; 
stroke:#000000; stroke-width:0; stroke-opacity:1; 
stroke-linecap:round; stroke-linejoin:round;fill-rule:evenodd;"
d="M 44119,26964
44178,26975
44289,27021
44389,27088
44474,27173
44541,27273
44587,27384
44610,27502
44610,27623
44587,27741
44541,27852
44474,27952
44389,28037
44289,28104
44178,28150
44119,28161
44060,28173
43939,28173
43880,28161
43821,28150
43710,28104
43610,28037
43525,27952
43458,27852
43412,27741
43389,27623
43389,27502
43412,27384
43458,27273
43525,27173
43610,27088
43710,27021
43821,26975
43880,26964
43939,26952
44060,26952
44119,26964
Z" /> 
<path style="fill:#000000; fill-opacity:1.0; 
stroke:#000000; stroke-width:0; stroke-opacity:1; 
stroke-linecap:round; stroke-linejoin:round;fill-rule:evenodd;"
d="M 44119,24995
44178,25007
44289,25053
44389,25120
44474,25205
44541,25305
44587,25416
44610,25534
44610,25654
44587,25772
44541,25883
44474,25983
44389,26068
44289,26135
44178,26181
44119,26193
44060,26205
43939,26205
43880,26193
43821,26181
43710,26135
43610,26068
43525,25983
43458,25883
43412,25772
43389,25654
43389,25534
43412,25416
43458,25305
43525,25205
43610,25120
43710,25053
43821,25007
43880,24995
43939,24983
44060,24983
44119,24995
Z" /> 
<path style="fill:#000000; fill-opacity:1.0; 
stroke:#000000; stroke-width:0; stroke-opacity:1; 
stroke-linecap:round; stroke-linejoin:round;fill-rule:evenodd;"
d="M 44119,23027
44178,23038
44289,23084
44389,23151
44474,23236
44541,23336
44587,23447
44610,23565
44610,23686
44587,23804
44541,23915
44474,24015
44389,24100
44289,24167
44178,24213
44119,24224
44060,24236
43939,24236
43880,24224
43821,24213
43710,24167
43610,24100
43525,24015
43458,23915
43412,23804
43389,23686
43389,23565
43412,23447
43458,23336
43525,23236
43610,23151
43710,23084
43821,23038
43880,23027
43939,23015
44060,23015
44119,23027
Z" /> 
<path style="fill:#000000; fill-opacity:1.0; 
stroke:#000000; stroke-width:0; stroke-opacity:1; 
stroke-linecap:round; stroke-linejoin:round;fill-rule:evenodd;"
d="M 44119,21058
44178,21070
44289,21116
44389,21183
44474,21268
44541,21368
44587,21479
44610,21597
44610,21717
44587,21835
44541,21946
44474,22046
44389,22131
44289,22198
44178,22244
44119,22256
44060,22268
43939,22268
43880,22256
43821,22244
43710,22198
43610,22131
43525,22046
43458,21946
43412,21835
43389,21717
43389,21597
43412,21479
43458,21368
43525,21268
43610,21183
43710,21116
43821,21070
43880,21058
43939,21046
44060,21046
44119,21058
Z" /> 
</g> 
</svg>
